<svg xmlns="http://www.w3.org/2000/svg" viewBox="0 0 825.81 1074">
    <defs>
        <style>
            .cls-1 {
                fill: #5c6a73;
            }

            .cls-2 {
                fill: #a0b4bd;
            }
        </style>
    </defs>
    <g id="Layer_2" data-name="Layer 2">
        <g id="Layer_1-2" data-name="Layer 1">
            <path class="cls-1"
                d="M239.13,868.57,333.69,774V444.22l-95.23,95.23V733.23L142,636.76a28.55,28.55,0,0,1,0-40.38L598.54,139.83l28.1,28.1,22.5-84,22.5-84-84,22.5-84,22.5,28.54,28.54L55.51,550.28,8.36,597.43a28.54,28.54,0,0,0,0,40.37l46.11,46.11,184,184Z" />
            <polygon class="cls-2" points="460.13 648.71 460.13 318.91 364.9 414.14 364.9 743.94 460.13 648.71" />
            <path class="cls-1"
                d="M817.45,426.82v-.08l-233.2-233.2v.12l-95.18,95.18v329.8l95.23-95.23V328.27l99.56,99.56a28.55,28.55,0,0,1,0,40.38l-459,459-21.18-21.18-22.5,84-22.49,84,84-22.5,84-22.5-35.46-35.46L770.34,514.31l47.11-47.11h0a28.55,28.55,0,0,0,0-40.38Z" />
        </g>
    </g>
</svg>