<svg width="738" height="485" viewBox="0 0 738 485" fill="none" xmlns="http://www.w3.org/2000/svg">
<path d="M622.531 279C625.844 279 627.969 277.062 627.969 273.672C627.969 270.297 625.93 268.391 622.531 268.391H617.883V279H622.531ZM622.312 270.555C624.328 270.555 625.336 271.594 625.336 273.672C625.336 275.68 624.375 276.844 622.312 276.844H620.453V270.555H622.312ZM631.273 274.438C631.336 273.82 631.844 273.297 632.75 273.297C633.578 273.297 634.07 273.852 634.07 274.438H631.273ZM635.781 276.641C635.305 276.867 634.32 277.078 633.328 277.078C632.32 277.078 631.391 276.75 631.266 275.883H636.266C636.812 272.773 634.883 271.344 632.711 271.344C630.5 271.344 628.867 272.891 628.867 275.25C628.867 277.609 630.531 279.156 633.312 279.156C634.461 279.156 635.531 278.82 636.117 278.484L635.781 276.641ZM642.695 271.5L641.008 276.594L639.32 271.5H636.734L639.492 279H642.523L645.281 271.5H642.695ZM648.656 271.5H646.195V279H648.656V271.5ZM647.414 270.539C648.211 270.539 648.773 269.992 648.773 269.195C648.773 268.391 648.211 267.844 647.414 267.844C646.617 267.844 646.07 268.398 646.07 269.195C646.07 269.992 646.625 270.539 647.414 270.539ZM649.82 275.266C649.82 277.562 651.602 279.156 654 279.156C654.984 279.156 655.664 278.953 656.531 278.539L656.289 276.383C655.586 276.719 655.086 276.898 654.273 276.898C653.164 276.898 652.281 276.336 652.281 275.25C652.281 273.984 653.281 273.57 654.406 273.57C655.039 273.57 655.711 273.711 656.258 273.938L656.438 271.844C655.516 271.461 654.828 271.344 653.969 271.344C651.648 271.344 649.82 272.688 649.82 275.266ZM659.57 274.438C659.633 273.82 660.141 273.297 661.047 273.297C661.875 273.297 662.367 273.852 662.367 274.438H659.57ZM664.078 276.641C663.602 276.867 662.617 277.078 661.625 277.078C660.617 277.078 659.688 276.75 659.562 275.883H664.562C665.109 272.773 663.18 271.344 661.008 271.344C658.797 271.344 657.164 272.891 657.164 275.25C657.164 277.609 658.828 279.156 661.609 279.156C662.758 279.156 663.828 278.82 664.414 278.484L664.078 276.641ZM617.461 293.703C617.461 297.031 620.125 299.156 623.312 299.156C624.695 299.156 625.945 298.859 627.156 298.258L626.805 296.078C625.898 296.648 624.844 296.898 623.711 296.898C621.633 296.898 620.094 295.656 620.094 293.672C620.094 291.438 622.008 290.57 623.992 290.57C624.992 290.57 626.008 290.797 626.797 291.188L626.961 288.953C625.906 288.477 624.75 288.234 623.617 288.234C620.445 288.234 617.461 290.07 617.461 293.703ZM630.688 288H628.227V299H630.688V288ZM640 299V291.5H637.617L637.539 292.289C637.109 291.766 636.383 291.344 635.328 291.344C633.328 291.344 631.859 293.016 631.859 295.258C631.859 297.5 633.328 299.156 635.328 299.156C636.383 299.156 637.109 298.742 637.539 298.211L637.617 299H640ZM635.914 293.531C636.867 293.539 637.531 294.242 637.531 295.258C637.531 296.273 636.867 296.984 635.914 296.984C634.961 296.984 634.297 296.273 634.297 295.258C634.297 294.242 634.961 293.531 635.914 293.531ZM647.516 296.703C647.516 295.422 646.844 294.719 645.398 294.484L644.672 294.367C643.82 294.234 643.516 294.094 643.516 293.828C643.516 293.5 643.914 293.344 644.75 293.344C645.398 293.344 646.516 293.547 646.992 293.742L647.18 291.828C646.461 291.508 645.578 291.344 644.617 291.344C642.516 291.344 641.172 292.32 641.172 293.844C641.172 295.172 641.875 295.883 643.438 296.125L644.133 296.234C644.914 296.359 645.141 296.477 645.141 296.758C645.141 297.078 644.828 297.195 644.008 297.195C643.32 297.195 642.25 296.977 641.531 296.695L641.289 298.641C642.008 298.961 643.109 299.156 644.219 299.156C646.242 299.156 647.516 298.203 647.516 296.703ZM654.656 296.703C654.656 295.422 653.984 294.719 652.539 294.484L651.812 294.367C650.961 294.234 650.656 294.094 650.656 293.828C650.656 293.5 651.055 293.344 651.891 293.344C652.539 293.344 653.656 293.547 654.133 293.742L654.32 291.828C653.602 291.508 652.719 291.344 651.758 291.344C649.656 291.344 648.312 292.32 648.312 293.844C648.312 295.172 649.016 295.883 650.578 296.125L651.273 296.234C652.055 296.359 652.281 296.477 652.281 296.758C652.281 297.078 651.969 297.195 651.148 297.195C650.461 297.195 649.391 296.977 648.672 296.695L648.43 298.641C649.148 298.961 650.25 299.156 651.359 299.156C653.383 299.156 654.656 298.203 654.656 296.703ZM658.234 291.5H655.773V299H658.234V291.5ZM656.992 290.539C657.789 290.539 658.352 289.992 658.352 289.195C658.352 288.391 657.789 287.844 656.992 287.844C656.195 287.844 655.648 288.398 655.648 289.195C655.648 289.992 656.203 290.539 656.992 290.539ZM664.664 293.508V291.5H662.828V290.961C662.828 290.141 663.344 289.883 663.891 289.883C664.156 289.883 664.438 289.938 664.656 290L664.906 288.016C664.398 287.891 663.93 287.828 663.508 287.828C661.523 287.828 660.453 289.117 660.453 290.844V291.5H659.219V293.508H660.453V299H662.914V293.508H664.664ZM668.188 291.5H665.727V299H668.188V291.5ZM666.945 290.539C667.742 290.539 668.305 289.992 668.305 289.195C668.305 288.391 667.742 287.844 666.945 287.844C666.148 287.844 665.602 288.398 665.602 289.195C665.602 289.992 666.156 290.539 666.945 290.539ZM669.336 295.266C669.336 297.562 671.117 299.156 673.516 299.156C674.5 299.156 675.18 298.953 676.047 298.539L675.805 296.383C675.102 296.719 674.602 296.898 673.789 296.898C672.68 296.898 671.797 296.336 671.797 295.25C671.797 293.984 672.797 293.57 673.922 293.57C674.555 293.57 675.227 293.711 675.773 293.938L675.953 291.844C675.031 291.461 674.344 291.344 673.484 291.344C671.164 291.344 669.336 292.688 669.336 295.266ZM684.828 299V291.5H682.445L682.367 292.289C681.938 291.766 681.211 291.344 680.156 291.344C678.156 291.344 676.688 293.016 676.688 295.258C676.688 297.5 678.156 299.156 680.156 299.156C681.211 299.156 681.938 298.742 682.367 298.211L682.445 299H684.828ZM680.742 293.531C681.695 293.539 682.359 294.242 682.359 295.258C682.359 296.273 681.695 296.984 680.742 296.984C679.789 296.984 679.125 296.273 679.125 295.258C679.125 294.242 679.789 293.531 680.742 293.531ZM691.477 293.508V291.5H689.359V289.094H686.977V291.5H685.781V293.508H686.977V296.328C686.977 298.328 688.219 299.156 689.938 299.156C690.562 299.156 691.383 299.016 691.93 298.812L691.758 296.812C690.57 297.094 689.438 297.203 689.438 295.93V293.508H691.477ZM695.281 291.5H692.82V299H695.281V291.5ZM694.039 290.539C694.836 290.539 695.398 289.992 695.398 289.195C695.398 288.391 694.836 287.844 694.039 287.844C693.242 287.844 692.695 288.398 692.695 289.195C692.695 289.992 693.25 290.539 694.039 290.539ZM700.469 291.344C698.148 291.344 696.438 293.016 696.438 295.25C696.438 297.484 698.148 299.156 700.469 299.156C702.789 299.156 704.5 297.484 704.5 295.25C704.5 293.016 702.789 291.344 700.469 291.344ZM700.469 293.523C701.406 293.523 702.062 294.234 702.062 295.25C702.062 296.266 701.406 296.977 700.469 296.977C699.531 296.977 698.875 296.266 698.875 295.25C698.875 294.234 699.531 293.523 700.469 293.523ZM713.078 299V294.125C713.078 292.336 711.719 291.344 710.305 291.344C709.422 291.344 708.516 291.617 707.984 292.289L707.906 291.5H705.648V299H708.109V294.828C708.109 293.992 708.742 293.594 709.359 293.594C709.953 293.594 710.617 293.992 710.617 294.828V299H713.078ZM625.562 319V311.5H623.18L623.102 312.289C622.672 311.766 621.945 311.344 620.891 311.344C618.891 311.344 617.422 313.016 617.422 315.258C617.422 317.5 618.891 319.156 620.891 319.156C621.945 319.156 622.672 318.742 623.102 318.211L623.18 319H625.562ZM621.477 313.531C622.43 313.539 623.094 314.242 623.094 315.258C623.094 316.273 622.43 316.984 621.477 316.984C620.523 316.984 619.859 316.273 619.859 315.258C619.859 314.242 620.523 313.531 621.477 313.531ZM634.484 319V314.125C634.484 312.336 633.125 311.344 631.711 311.344C630.828 311.344 629.922 311.617 629.391 312.289L629.312 311.5H627.055V319H629.516V314.828C629.516 313.992 630.148 313.594 630.766 313.594C631.359 313.594 632.023 313.992 632.023 314.828V319H634.484ZM643.758 319V307.984H641.367V312.289C640.93 311.742 640.227 311.344 639.094 311.344C636.977 311.344 635.594 313.016 635.594 315.266C635.594 317.5 636.977 319.156 639.094 319.156C640.023 319.156 640.852 318.875 641.297 318.422L641.375 319H643.758ZM639.727 313.547C640.648 313.547 641.328 314.242 641.328 315.25C641.328 316.25 640.648 316.953 639.727 316.953C638.789 316.953 638.07 316.25 638.07 315.25C638.07 314.211 638.781 313.547 639.727 313.547ZM648.852 313.703C648.852 317.031 651.516 319.156 654.703 319.156C656.086 319.156 657.336 318.859 658.547 318.258L658.195 316.078C657.289 316.648 656.234 316.898 655.102 316.898C653.023 316.898 651.484 315.656 651.484 313.672C651.484 311.438 653.398 310.57 655.383 310.57C656.383 310.57 657.398 310.797 658.188 311.188L658.352 308.953C657.297 308.477 656.141 308.234 655.008 308.234C651.836 308.234 648.852 310.07 648.852 313.703ZM663.203 311.344C660.883 311.344 659.172 313.016 659.172 315.25C659.172 317.484 660.883 319.156 663.203 319.156C665.523 319.156 667.234 317.484 667.234 315.25C667.234 313.016 665.523 311.344 663.203 311.344ZM663.203 313.523C664.141 313.523 664.797 314.234 664.797 315.25C664.797 316.266 664.141 316.977 663.203 316.977C662.266 316.977 661.609 316.266 661.609 315.25C661.609 314.234 662.266 313.523 663.203 313.523ZM675.812 319V314.125C675.812 312.336 674.453 311.344 673.039 311.344C672.156 311.344 671.25 311.617 670.719 312.289L670.641 311.5H668.383V319H670.844V314.828C670.844 313.992 671.477 313.594 672.094 313.594C672.688 313.594 673.352 313.992 673.352 314.828V319H675.812ZM682.328 313.508V311.5H680.25V310.984C680.25 309.672 681.828 309.805 682.5 310.094L682.758 308.094C682.156 307.914 681.711 307.844 681.156 307.844C678.859 307.844 677.875 309.289 677.875 310.844V311.5H676.641V313.508H677.875V319H680.336V313.508H682.328ZM686.734 311.344C684.414 311.344 682.703 313.016 682.703 315.25C682.703 317.484 684.414 319.156 686.734 319.156C689.055 319.156 690.766 317.484 690.766 315.25C690.766 313.016 689.055 311.344 686.734 311.344ZM686.734 313.523C687.672 313.523 688.328 314.234 688.328 315.25C688.328 316.266 687.672 316.977 686.734 316.977C685.797 316.977 685.141 316.266 685.141 315.25C685.141 314.234 685.797 313.523 686.734 313.523ZM694.312 312.523L694.234 311.5H691.914V319H694.375V315.391C694.375 313.992 695.164 313.484 696.094 313.484C696.406 313.484 696.727 313.539 697.039 313.648L697.188 311.5C696.875 311.398 696.57 311.344 696.273 311.344C695.406 311.344 694.664 311.781 694.312 312.523ZM707.93 319H710.391V314.125C710.391 312.297 709.023 311.344 707.578 311.344C706.633 311.344 705.664 311.734 705.055 312.594C704.656 311.766 703.695 311.344 702.695 311.344C701.812 311.344 700.906 311.617 700.375 312.289L700.297 311.5H698.039V319H700.5V314.828C700.5 313.992 701.133 313.594 701.75 313.594C702.344 313.594 702.977 313.992 702.977 314.828V319H705.438V314.828C705.438 313.992 706.086 313.594 706.703 313.594C707.32 313.594 707.93 313.992 707.93 314.828V319ZM714.281 311.5H711.82V319H714.281V311.5ZM713.039 310.539C713.836 310.539 714.398 309.992 714.398 309.195C714.398 308.391 713.836 307.844 713.039 307.844C712.242 307.844 711.695 308.398 711.695 309.195C711.695 309.992 712.25 310.539 713.039 310.539ZM720.93 313.508V311.5H718.812V309.094H716.43V311.5H715.234V313.508H716.43V316.328C716.43 318.328 717.672 319.156 719.391 319.156C720.016 319.156 720.836 319.016 721.383 318.812L721.211 316.812C720.023 317.094 718.891 317.203 718.891 315.93V313.508H720.93ZM724.688 319.008C724.469 319.773 723.898 320.156 723.227 320.156C722.945 320.156 722.648 320.086 722.352 319.953L722.016 321.891C722.539 322.148 723.094 322.281 723.633 322.281C725.016 322.281 726.219 321.594 726.82 320.102L730.297 311.5H727.547L726 316.516L724.414 311.5H721.672L724.688 319.008ZM621.281 335.055L622.797 330.961L624.305 335.055H621.281ZM625.039 337.055L625.758 339H628.508L624.312 328.391H621.266L617.078 339H619.828L620.547 337.055H625.039ZM635.344 336.703C635.344 335.422 634.672 334.719 633.227 334.484L632.5 334.367C631.648 334.234 631.344 334.094 631.344 333.828C631.344 333.5 631.742 333.344 632.578 333.344C633.227 333.344 634.344 333.547 634.82 333.742L635.008 331.828C634.289 331.508 633.406 331.344 632.445 331.344C630.344 331.344 629 332.32 629 333.844C629 335.172 629.703 335.883 631.266 336.125L631.961 336.234C632.742 336.359 632.969 336.477 632.969 336.758C632.969 337.078 632.656 337.195 631.836 337.195C631.148 337.195 630.078 336.977 629.359 336.695L629.117 338.641C629.836 338.961 630.938 339.156 632.047 339.156C634.07 339.156 635.344 338.203 635.344 336.703ZM642.484 336.703C642.484 335.422 641.812 334.719 640.367 334.484L639.641 334.367C638.789 334.234 638.484 334.094 638.484 333.828C638.484 333.5 638.883 333.344 639.719 333.344C640.367 333.344 641.484 333.547 641.961 333.742L642.148 331.828C641.43 331.508 640.547 331.344 639.586 331.344C637.484 331.344 636.141 332.32 636.141 333.844C636.141 335.172 636.844 335.883 638.406 336.125L639.102 336.234C639.883 336.359 640.109 336.477 640.109 336.758C640.109 337.078 639.797 337.195 638.977 337.195C638.289 337.195 637.219 336.977 636.5 336.695L636.258 338.641C636.977 338.961 638.078 339.156 639.188 339.156C641.211 339.156 642.484 338.203 642.484 336.703ZM645.68 334.438C645.742 333.82 646.25 333.297 647.156 333.297C647.984 333.297 648.477 333.852 648.477 334.438H645.68ZM650.188 336.641C649.711 336.867 648.727 337.078 647.734 337.078C646.727 337.078 645.797 336.75 645.672 335.883H650.672C651.219 332.773 649.289 331.344 647.117 331.344C644.906 331.344 643.273 332.891 643.273 335.25C643.273 337.609 644.938 339.156 647.719 339.156C648.867 339.156 649.938 338.82 650.523 338.484L650.188 336.641ZM657.953 336.703C657.953 335.422 657.281 334.719 655.836 334.484L655.109 334.367C654.258 334.234 653.953 334.094 653.953 333.828C653.953 333.5 654.352 333.344 655.188 333.344C655.836 333.344 656.953 333.547 657.43 333.742L657.617 331.828C656.898 331.508 656.016 331.344 655.055 331.344C652.953 331.344 651.609 332.32 651.609 333.844C651.609 335.172 652.312 335.883 653.875 336.125L654.57 336.234C655.352 336.359 655.578 336.477 655.578 336.758C655.578 337.078 655.266 337.195 654.445 337.195C653.758 337.195 652.688 336.977 651.969 336.695L651.727 338.641C652.445 338.961 653.547 339.156 654.656 339.156C656.68 339.156 657.953 338.203 657.953 336.703ZM665.094 336.703C665.094 335.422 664.422 334.719 662.977 334.484L662.25 334.367C661.398 334.234 661.094 334.094 661.094 333.828C661.094 333.5 661.492 333.344 662.328 333.344C662.977 333.344 664.094 333.547 664.57 333.742L664.758 331.828C664.039 331.508 663.156 331.344 662.195 331.344C660.094 331.344 658.75 332.32 658.75 333.844C658.75 335.172 659.453 335.883 661.016 336.125L661.711 336.234C662.492 336.359 662.719 336.477 662.719 336.758C662.719 337.078 662.406 337.195 661.586 337.195C660.898 337.195 659.828 336.977 659.109 336.695L658.867 338.641C659.586 338.961 660.688 339.156 661.797 339.156C663.82 339.156 665.094 338.203 665.094 336.703ZM676.102 339H678.562V334.125C678.562 332.297 677.195 331.344 675.75 331.344C674.805 331.344 673.836 331.734 673.227 332.594C672.828 331.766 671.867 331.344 670.867 331.344C669.984 331.344 669.078 331.617 668.547 332.289L668.469 331.5H666.211V339H668.672V334.828C668.672 333.992 669.305 333.594 669.922 333.594C670.516 333.594 671.148 333.992 671.148 334.828V339H673.609V334.828C673.609 333.992 674.258 333.594 674.875 333.594C675.492 333.594 676.102 333.992 676.102 334.828V339ZM682.07 334.438C682.133 333.82 682.641 333.297 683.547 333.297C684.375 333.297 684.867 333.852 684.867 334.438H682.07ZM686.578 336.641C686.102 336.867 685.117 337.078 684.125 337.078C683.117 337.078 682.188 336.75 682.062 335.883H687.062C687.609 332.773 685.68 331.344 683.508 331.344C681.297 331.344 679.664 332.891 679.664 335.25C679.664 337.609 681.328 339.156 684.109 339.156C685.258 339.156 686.328 338.82 686.914 338.484L686.578 336.641ZM695.75 339V334.125C695.75 332.336 694.391 331.344 692.977 331.344C692.094 331.344 691.188 331.617 690.656 332.289L690.578 331.5H688.32V339H690.781V334.828C690.781 333.992 691.414 333.594 692.031 333.594C692.625 333.594 693.289 333.992 693.289 334.828V339H695.75ZM702.258 333.508V331.5H700.141V329.094H697.758V331.5H696.562V333.508H697.758V336.328C697.758 338.328 699 339.156 700.719 339.156C701.344 339.156 702.164 339.016 702.711 338.812L702.539 336.812C701.352 337.094 700.219 337.203 700.219 335.93V333.508H702.258ZM709.625 336.703C709.625 335.422 708.953 334.719 707.508 334.484L706.781 334.367C705.93 334.234 705.625 334.094 705.625 333.828C705.625 333.5 706.023 333.344 706.859 333.344C707.508 333.344 708.625 333.547 709.102 333.742L709.289 331.828C708.57 331.508 707.688 331.344 706.727 331.344C704.625 331.344 703.281 332.32 703.281 333.844C703.281 335.172 703.984 335.883 705.547 336.125L706.242 336.234C707.023 336.359 707.25 336.477 707.25 336.758C707.25 337.078 706.938 337.195 706.117 337.195C705.43 337.195 704.359 336.977 703.641 336.695L703.398 338.641C704.117 338.961 705.219 339.156 706.328 339.156C708.352 339.156 709.625 338.203 709.625 336.703Z" fill="#333333"/>
<path d="M3.45312 248.391H0.882812V259H3.45312V248.391ZM12.5156 259V254.125C12.5156 252.336 11.1562 251.344 9.74219 251.344C8.85938 251.344 7.95312 251.617 7.42188 252.289L7.34375 251.5H5.08594V259H7.54688V254.828C7.54688 253.992 8.17969 253.594 8.79688 253.594C9.39062 253.594 10.0547 253.992 10.0547 254.828V259H12.5156ZM19.9688 256.703C19.9688 255.422 19.2969 254.719 17.8516 254.484L17.125 254.367C16.2734 254.234 15.9688 254.094 15.9688 253.828C15.9688 253.5 16.3672 253.344 17.2031 253.344C17.8516 253.344 18.9688 253.547 19.4453 253.742L19.6328 251.828C18.9141 251.508 18.0312 251.344 17.0703 251.344C14.9688 251.344 13.625 252.32 13.625 253.844C13.625 255.172 14.3281 255.883 15.8906 256.125L16.5859 256.234C17.3672 256.359 17.5938 256.477 17.5938 256.758C17.5938 257.078 17.2812 257.195 16.4609 257.195C15.7734 257.195 14.7031 256.977 13.9844 256.695L13.7422 258.641C14.4609 258.961 15.5625 259.156 16.6719 259.156C18.6953 259.156 19.9688 258.203 19.9688 256.703ZM23.5469 262.125V258.445C23.9922 258.875 24.8203 259.156 25.75 259.156C27.8672 259.156 29.25 257.5 29.25 255.266C29.25 253.016 27.8672 251.344 25.75 251.344C24.6172 251.344 23.9141 251.742 23.4766 252.289L23.3984 251.5H21.0859V262.125H23.5469ZM25.1172 253.547C26.0625 253.547 26.7734 254.211 26.7734 255.25C26.7734 256.25 26.0547 256.953 25.1172 256.953C24.1953 256.953 23.5156 256.25 23.5156 255.25C23.5156 254.242 24.1953 253.547 25.1172 253.547ZM32.4922 254.438C32.5547 253.82 33.0625 253.297 33.9688 253.297C34.7969 253.297 35.2891 253.852 35.2891 254.438H32.4922ZM37 256.641C36.5234 256.867 35.5391 257.078 34.5469 257.078C33.5391 257.078 32.6094 256.75 32.4844 255.883H37.4844C38.0312 252.773 36.1016 251.344 33.9297 251.344C31.7188 251.344 30.0859 252.891 30.0859 255.25C30.0859 257.609 31.75 259.156 34.5312 259.156C35.6797 259.156 36.75 258.82 37.3359 258.484L37 256.641ZM38.4141 255.266C38.4141 257.562 40.1953 259.156 42.5938 259.156C43.5781 259.156 44.2578 258.953 45.125 258.539L44.8828 256.383C44.1797 256.719 43.6797 256.898 42.8672 256.898C41.7578 256.898 40.875 256.336 40.875 255.25C40.875 253.984 41.875 253.57 43 253.57C43.6328 253.57 44.3047 253.711 44.8516 253.938L45.0312 251.844C44.1094 251.461 43.4219 251.344 42.5625 251.344C40.2422 251.344 38.4141 252.688 38.4141 255.266ZM51.3672 253.508V251.5H49.25V249.094H46.8672V251.5H45.6719V253.508H46.8672V256.328C46.8672 258.328 48.1094 259.156 49.8281 259.156C50.4531 259.156 51.2734 259.016 51.8203 258.812L51.6484 256.812C50.4609 257.094 49.3281 257.203 49.3281 255.93V253.508H51.3672ZM55.1719 251.5H52.7109V259H55.1719V251.5ZM53.9297 250.539C54.7266 250.539 55.2891 249.992 55.2891 249.195C55.2891 248.391 54.7266 247.844 53.9297 247.844C53.1328 247.844 52.5859 248.398 52.5859 249.195C52.5859 249.992 53.1406 250.539 53.9297 250.539ZM60.3594 251.344C58.0391 251.344 56.3281 253.016 56.3281 255.25C56.3281 257.484 58.0391 259.156 60.3594 259.156C62.6797 259.156 64.3906 257.484 64.3906 255.25C64.3906 253.016 62.6797 251.344 60.3594 251.344ZM60.3594 253.523C61.2969 253.523 61.9531 254.234 61.9531 255.25C61.9531 256.266 61.2969 256.977 60.3594 256.977C59.4219 256.977 58.7656 256.266 58.7656 255.25C58.7656 254.234 59.4219 253.523 60.3594 253.523ZM72.9688 259V254.125C72.9688 252.336 71.6094 251.344 70.1953 251.344C69.3125 251.344 68.4062 251.617 67.875 252.289L67.7969 251.5H65.5391V259H68V254.828C68 253.992 68.6328 253.594 69.25 253.594C69.8438 253.594 70.5078 253.992 70.5078 254.828V259H72.9688ZM85.5312 247.055H83.1016L77.0938 262.125H79.5156L85.5312 247.055ZM4.28125 275.055L5.79688 270.961L7.30469 275.055H4.28125ZM8.03906 277.055L8.75781 279H11.5078L7.3125 268.391H4.26562L0.078125 279H2.82812L3.54688 277.055H8.03906ZM16.9219 271.5V275.68C16.9219 276.43 16.4375 276.914 15.7031 276.914C15.0547 276.914 14.5625 276.422 14.5625 275.68V271.5H12.1016V275.914C12.1016 277.773 13.4844 279.156 15.7031 279.156C17.9219 279.156 19.3828 277.773 19.3828 275.867V271.5H16.9219ZM28.6484 279V267.984H26.2578V272.289C25.8203 271.742 25.1172 271.344 23.9844 271.344C21.8672 271.344 20.4844 273.016 20.4844 275.266C20.4844 277.5 21.8672 279.156 23.9844 279.156C24.9141 279.156 25.7422 278.875 26.1875 278.422L26.2656 279H28.6484ZM24.6172 273.547C25.5391 273.547 26.2188 274.242 26.2188 275.25C26.2188 276.25 25.5391 276.953 24.6172 276.953C23.6797 276.953 22.9609 276.25 22.9609 275.25C22.9609 274.211 23.6719 273.547 24.6172 273.547ZM32.5938 271.5H30.1328V279H32.5938V271.5ZM31.3516 270.539C32.1484 270.539 32.7109 269.992 32.7109 269.195C32.7109 268.391 32.1484 267.844 31.3516 267.844C30.5547 267.844 30.0078 268.398 30.0078 269.195C30.0078 269.992 30.5625 270.539 31.3516 270.539ZM39.2422 273.508V271.5H37.125V269.094H34.7422V271.5H33.5469V273.508H34.7422V276.328C34.7422 278.328 35.9844 279.156 37.7031 279.156C38.3281 279.156 39.1484 279.016 39.6953 278.812L39.5234 276.812C38.3359 277.094 37.2031 277.203 37.2031 275.93V273.508H39.2422ZM3.45312 295.992H5.4375L7.69531 298.992H10.7812L8.0625 295.461C9.1875 294.797 9.96094 293.562 9.96094 292.188C9.96094 289.945 8.21094 288.391 5.92188 288.391H0.882812V299H3.45312V295.992ZM5.74219 290.555C6.6875 290.555 7.32812 291.203 7.32812 292.188C7.32812 293.102 6.71875 293.828 5.74219 293.828H3.45312V290.555H5.74219ZM13.6016 294.438C13.6641 293.82 14.1719 293.297 15.0781 293.297C15.9062 293.297 16.3984 293.852 16.3984 294.438H13.6016ZM18.1094 296.641C17.6328 296.867 16.6484 297.078 15.6562 297.078C14.6484 297.078 13.7188 296.75 13.5938 295.883H18.5938C19.1406 292.773 17.2109 291.344 15.0391 291.344C12.8281 291.344 11.1953 292.891 11.1953 295.25C11.1953 297.609 12.8594 299.156 15.6406 299.156C16.7891 299.156 17.8594 298.82 18.4453 298.484L18.1094 296.641ZM27.6719 299V291.5H25.2891L25.2109 292.289C24.7812 291.766 24.0547 291.344 23 291.344C21 291.344 19.5312 293.016 19.5312 295.258C19.5312 297.5 21 299.156 23 299.156C24.0547 299.156 24.7812 298.742 25.2109 298.211L25.2891 299H27.6719ZM23.5859 293.531C24.5391 293.539 25.2031 294.242 25.2031 295.258C25.2031 296.273 24.5391 296.984 23.5859 296.984C22.6328 296.984 21.9688 296.273 21.9688 295.258C21.9688 294.242 22.6328 293.531 23.5859 293.531ZM37.0078 299V287.984H34.6172V292.289C34.1797 291.742 33.4766 291.344 32.3438 291.344C30.2266 291.344 28.8438 293.016 28.8438 295.266C28.8438 297.5 30.2266 299.156 32.3438 299.156C33.2734 299.156 34.1016 298.875 34.5469 298.422L34.625 299H37.0078ZM32.9766 293.547C33.8984 293.547 34.5781 294.242 34.5781 295.25C34.5781 296.25 33.8984 296.953 32.9766 296.953C32.0391 296.953 31.3203 296.25 31.3203 295.25C31.3203 294.211 32.0312 293.547 32.9766 293.547ZM40.9531 291.5H38.4922V299H40.9531V291.5ZM39.7109 290.539C40.5078 290.539 41.0703 289.992 41.0703 289.195C41.0703 288.391 40.5078 287.844 39.7109 287.844C38.9141 287.844 38.3672 288.398 38.3672 289.195C38.3672 289.992 38.9219 290.539 39.7109 290.539ZM49.875 299V294.125C49.875 292.336 48.5156 291.344 47.1016 291.344C46.2188 291.344 45.3125 291.617 44.7812 292.289L44.7031 291.5H42.4453V299H44.9062V294.828C44.9062 293.992 45.5391 293.594 46.1562 293.594C46.75 293.594 47.4141 293.992 47.4141 294.828V299H49.875ZM53.3828 294.438C53.4453 293.82 53.9531 293.297 54.8594 293.297C55.6875 293.297 56.1797 293.852 56.1797 294.438H53.3828ZM57.8906 296.641C57.4141 296.867 56.4297 297.078 55.4375 297.078C54.4297 297.078 53.5 296.75 53.375 295.883H58.375C58.9219 292.773 56.9922 291.344 54.8203 291.344C52.6094 291.344 50.9766 292.891 50.9766 295.25C50.9766 297.609 52.6406 299.156 55.4219 299.156C56.5703 299.156 57.6406 298.82 58.2266 298.484L57.8906 296.641ZM65.6562 296.703C65.6562 295.422 64.9844 294.719 63.5391 294.484L62.8125 294.367C61.9609 294.234 61.6562 294.094 61.6562 293.828C61.6562 293.5 62.0547 293.344 62.8906 293.344C63.5391 293.344 64.6562 293.547 65.1328 293.742L65.3203 291.828C64.6016 291.508 63.7188 291.344 62.7578 291.344C60.6562 291.344 59.3125 292.32 59.3125 293.844C59.3125 295.172 60.0156 295.883 61.5781 296.125L62.2734 296.234C63.0547 296.359 63.2812 296.477 63.2812 296.758C63.2812 297.078 62.9688 297.195 62.1484 297.195C61.4609 297.195 60.3906 296.977 59.6719 296.695L59.4297 298.641C60.1484 298.961 61.25 299.156 62.3594 299.156C64.3828 299.156 65.6562 298.203 65.6562 296.703ZM72.7969 296.703C72.7969 295.422 72.125 294.719 70.6797 294.484L69.9531 294.367C69.1016 294.234 68.7969 294.094 68.7969 293.828C68.7969 293.5 69.1953 293.344 70.0312 293.344C70.6797 293.344 71.7969 293.547 72.2734 293.742L72.4609 291.828C71.7422 291.508 70.8594 291.344 69.8984 291.344C67.7969 291.344 66.4531 292.32 66.4531 293.844C66.4531 295.172 67.1562 295.883 68.7188 296.125L69.4141 296.234C70.1953 296.359 70.4219 296.477 70.4219 296.758C70.4219 297.078 70.1094 297.195 69.2891 297.195C68.6016 297.195 67.5312 296.977 66.8125 296.695L66.5703 298.641C67.2891 298.961 68.3906 299.156 69.5 299.156C71.5234 299.156 72.7969 298.203 72.7969 296.703ZM85.0625 288.734C84.375 288.422 83.5 288.234 82.5938 288.234C80.6953 288.234 78.7891 289.039 78.7891 291.094C78.7891 291.82 78.9922 292.352 79.4062 292.859C78.3125 293.375 77.4688 294.508 77.4688 295.734C77.4688 298.109 79.5391 299.156 81.7344 299.156C83.1719 299.156 84.2109 298.68 84.875 298.109L85.8438 299H88.7969L86.4141 296.648C86.9609 295.992 87.6016 294.727 87.5703 293.234H85.2266C85.25 294.039 85.0234 294.758 84.7578 295.094L82.625 293.07C81.8125 292.305 81.3594 291.844 81.3594 291.367C81.3594 290.625 82 290.391 82.7344 290.391C83.6094 290.391 84.4531 290.617 84.8828 290.828L85.0625 288.734ZM81.8438 297.055C80.75 297.055 79.9922 296.469 79.9922 295.57C79.9922 295.023 80.3359 294.539 80.7812 294.289L83.2891 296.648C82.8281 296.961 82.3281 297.055 81.8438 297.055ZM4.65625 308.234C2.14844 308.234 0.492188 309.555 0.492188 311.531C0.492188 313.438 1.97656 314.133 3.39062 314.594L5.04688 315.016C5.82031 315.219 6.15625 315.469 6.15625 315.961C6.15625 316.672 5.35156 316.906 4.39062 316.906C2.92969 316.906 1.03125 316.359 0.765625 316.07L0.5625 318.328C1.25781 318.719 3.00781 319.156 4.57031 319.156C7.15625 319.156 8.79688 317.82 8.79688 315.875C8.79688 314.203 7.82812 313.398 5.875 312.836L4.35938 312.398C3.75 312.227 3.125 312.062 3.125 311.406C3.125 310.688 3.85938 310.453 4.76562 310.453C6.03125 310.453 7.63281 310.922 8.01562 311.172L8.22656 308.977C7.375 308.555 6.19531 308.234 4.65625 308.234ZM14.6875 311.5V315.68C14.6875 316.43 14.2031 316.914 13.4688 316.914C12.8203 316.914 12.3281 316.422 12.3281 315.68V311.5H9.86719V315.914C9.86719 317.773 11.25 319.156 13.4688 319.156C15.6875 319.156 17.1484 317.773 17.1484 315.867V311.5H14.6875ZM21.0312 322.125V318.445C21.4766 318.875 22.3047 319.156 23.2344 319.156C25.3516 319.156 26.7344 317.5 26.7344 315.266C26.7344 313.016 25.3516 311.344 23.2344 311.344C22.1016 311.344 21.3984 311.742 20.9609 312.289L20.8828 311.5H18.5703V322.125H21.0312ZM22.6016 313.547C23.5469 313.547 24.2578 314.211 24.2578 315.25C24.2578 316.25 23.5391 316.953 22.6016 316.953C21.6797 316.953 21 316.25 21 315.25C21 314.242 21.6797 313.547 22.6016 313.547ZM30.3594 322.125V318.445C30.8047 318.875 31.6328 319.156 32.5625 319.156C34.6797 319.156 36.0625 317.5 36.0625 315.266C36.0625 313.016 34.6797 311.344 32.5625 311.344C31.4297 311.344 30.7266 311.742 30.2891 312.289L30.2109 311.5H27.8984V322.125H30.3594ZM31.9297 313.547C32.875 313.547 33.5859 314.211 33.5859 315.25C33.5859 316.25 32.8672 316.953 31.9297 316.953C31.0078 316.953 30.3281 316.25 30.3281 315.25C30.3281 314.242 31.0078 313.547 31.9297 313.547ZM40.9219 311.344C38.6016 311.344 36.8906 313.016 36.8906 315.25C36.8906 317.484 38.6016 319.156 40.9219 319.156C43.2422 319.156 44.9531 317.484 44.9531 315.25C44.9531 313.016 43.2422 311.344 40.9219 311.344ZM40.9219 313.523C41.8594 313.523 42.5156 314.234 42.5156 315.25C42.5156 316.266 41.8594 316.977 40.9219 316.977C39.9844 316.977 39.3281 316.266 39.3281 315.25C39.3281 314.234 39.9844 313.523 40.9219 313.523ZM48.5 312.523L48.4219 311.5H46.1016V319H48.5625V315.391C48.5625 313.992 49.3516 313.484 50.2812 313.484C50.5938 313.484 50.9141 313.539 51.2266 313.648L51.375 311.5C51.0625 311.398 50.7578 311.344 50.4609 311.344C49.5938 311.344 48.8516 311.781 48.5 312.523ZM57.3828 313.508V311.5H55.2656V309.094H52.8828V311.5H51.6875V313.508H52.8828V316.328C52.8828 318.328 54.125 319.156 55.8438 319.156C56.4688 319.156 57.2891 319.016 57.8359 318.812L57.6641 316.812C56.4766 317.094 55.3438 317.203 55.3438 315.93V313.508H57.3828Z" fill="#333333"/>
<path d="M35.2656 51.6094C34.8047 51.7891 33.9844 51.8672 33.4922 51.8672C31.5469 51.8672 30.0938 50.6641 30.0938 48.6797C30.0938 46.3906 31.9453 45.5156 33.9844 45.5156C35.0703 45.5156 36.2109 45.7656 37.1484 46.1797L37.3203 43.9609C36.1953 43.4766 34.9609 43.2344 33.7578 43.2344C30.5 43.2344 27.4609 45.0234 27.4609 48.6797C27.4609 50.7969 28.4922 52.5156 30.3594 53.4531C31.2969 53.9219 32.3828 54.1484 33.6172 54.1484C35 54.1484 36.6094 53.7266 37.8359 53.0781V47.9062H32.7969V49.9922H35.2656V51.6094ZM46.9844 54V46.5H44.6016L44.5234 47.2891C44.0938 46.7656 43.3672 46.3438 42.3125 46.3438C40.3125 46.3438 38.8438 48.0156 38.8438 50.2578C38.8438 52.5 40.3125 54.1562 42.3125 54.1562C43.3672 54.1562 44.0938 53.7422 44.5234 53.2109L44.6016 54H46.9844ZM42.8984 48.5312C43.8516 48.5391 44.5156 49.2422 44.5156 50.2578C44.5156 51.2734 43.8516 51.9844 42.8984 51.9844C41.9453 51.9844 41.2812 51.2734 41.2812 50.2578C41.2812 49.2422 41.9453 48.5312 42.8984 48.5312ZM50.9375 57.125V53.4453C51.3828 53.875 52.2109 54.1562 53.1406 54.1562C55.2578 54.1562 56.6406 52.5 56.6406 50.2656C56.6406 48.0156 55.2578 46.3438 53.1406 46.3438C52.0078 46.3438 51.3047 46.7422 50.8672 47.2891L50.7891 46.5H48.4766V57.125H50.9375ZM52.5078 48.5469C53.4531 48.5469 54.1641 49.2109 54.1641 50.25C54.1641 51.25 53.4453 51.9531 52.5078 51.9531C51.5859 51.9531 50.9062 51.25 50.9062 50.25C50.9062 49.2422 51.5859 48.5469 52.5078 48.5469ZM64.7969 50.0547L66.3125 45.9609L67.8203 50.0547H64.7969ZM68.5547 52.0547L69.2734 54H72.0234L67.8281 43.3906H64.7812L60.5938 54H63.3438L64.0625 52.0547H68.5547ZM78.8594 51.7031C78.8594 50.4219 78.1875 49.7188 76.7422 49.4844L76.0156 49.3672C75.1641 49.2344 74.8594 49.0938 74.8594 48.8281C74.8594 48.5 75.2578 48.3438 76.0938 48.3438C76.7422 48.3438 77.8594 48.5469 78.3359 48.7422L78.5234 46.8281C77.8047 46.5078 76.9219 46.3438 75.9609 46.3438C73.8594 46.3438 72.5156 47.3203 72.5156 48.8438C72.5156 50.1719 73.2188 50.8828 74.7812 51.125L75.4766 51.2344C76.2578 51.3594 76.4844 51.4766 76.4844 51.7578C76.4844 52.0781 76.1719 52.1953 75.3516 52.1953C74.6641 52.1953 73.5938 51.9766 72.875 51.6953L72.6328 53.6406C73.3516 53.9609 74.4531 54.1562 75.5625 54.1562C77.5859 54.1562 78.8594 53.2031 78.8594 51.7031ZM86 51.7031C86 50.4219 85.3281 49.7188 83.8828 49.4844L83.1562 49.3672C82.3047 49.2344 82 49.0938 82 48.8281C82 48.5 82.3984 48.3438 83.2344 48.3438C83.8828 48.3438 85 48.5469 85.4766 48.7422L85.6641 46.8281C84.9453 46.5078 84.0625 46.3438 83.1016 46.3438C81 46.3438 79.6562 47.3203 79.6562 48.8438C79.6562 50.1719 80.3594 50.8828 81.9219 51.125L82.6172 51.2344C83.3984 51.3594 83.625 51.4766 83.625 51.7578C83.625 52.0781 83.3125 52.1953 82.4922 52.1953C81.8047 52.1953 80.7344 51.9766 80.0156 51.6953L79.7734 53.6406C80.4922 53.9609 81.5938 54.1562 82.7031 54.1562C84.7266 54.1562 86 53.2031 86 51.7031ZM89.1953 49.4375C89.2578 48.8203 89.7656 48.2969 90.6719 48.2969C91.5 48.2969 91.9922 48.8516 91.9922 49.4375H89.1953ZM93.7031 51.6406C93.2266 51.8672 92.2422 52.0781 91.25 52.0781C90.2422 52.0781 89.3125 51.75 89.1875 50.8828H94.1875C94.7344 47.7734 92.8047 46.3438 90.6328 46.3438C88.4219 46.3438 86.7891 47.8906 86.7891 50.25C86.7891 52.6094 88.4531 54.1562 91.2344 54.1562C92.3828 54.1562 93.4531 53.8203 94.0391 53.4844L93.7031 51.6406ZM101.469 51.7031C101.469 50.4219 100.797 49.7188 99.3516 49.4844L98.625 49.3672C97.7734 49.2344 97.4688 49.0938 97.4688 48.8281C97.4688 48.5 97.8672 48.3438 98.7031 48.3438C99.3516 48.3438 100.469 48.5469 100.945 48.7422L101.133 46.8281C100.414 46.5078 99.5312 46.3438 98.5703 46.3438C96.4688 46.3438 95.125 47.3203 95.125 48.8438C95.125 50.1719 95.8281 50.8828 97.3906 51.125L98.0859 51.2344C98.8672 51.3594 99.0938 51.4766 99.0938 51.7578C99.0938 52.0781 98.7812 52.1953 97.9609 52.1953C97.2734 52.1953 96.2031 51.9766 95.4844 51.6953L95.2422 53.6406C95.9609 53.9609 97.0625 54.1562 98.1719 54.1562C100.195 54.1562 101.469 53.2031 101.469 51.7031ZM108.609 51.7031C108.609 50.4219 107.938 49.7188 106.492 49.4844L105.766 49.3672C104.914 49.2344 104.609 49.0938 104.609 48.8281C104.609 48.5 105.008 48.3438 105.844 48.3438C106.492 48.3438 107.609 48.5469 108.086 48.7422L108.273 46.8281C107.555 46.5078 106.672 46.3438 105.711 46.3438C103.609 46.3438 102.266 47.3203 102.266 48.8438C102.266 50.1719 102.969 50.8828 104.531 51.125L105.227 51.2344C106.008 51.3594 106.234 51.4766 106.234 51.7578C106.234 52.0781 105.922 52.1953 105.102 52.1953C104.414 52.1953 103.344 51.9766 102.625 51.6953L102.383 53.6406C103.102 53.9609 104.203 54.1562 105.312 54.1562C107.336 54.1562 108.609 53.2031 108.609 51.7031ZM119.617 54H122.078V49.125C122.078 47.2969 120.711 46.3438 119.266 46.3438C118.32 46.3438 117.352 46.7344 116.742 47.5938C116.344 46.7656 115.383 46.3438 114.383 46.3438C113.5 46.3438 112.594 46.6172 112.062 47.2891L111.984 46.5H109.727V54H112.188V49.8281C112.188 48.9922 112.82 48.5938 113.438 48.5938C114.031 48.5938 114.664 48.9922 114.664 49.8281V54H117.125V49.8281C117.125 48.9922 117.773 48.5938 118.391 48.5938C119.008 48.5938 119.617 48.9922 119.617 49.8281V54ZM125.586 49.4375C125.648 48.8203 126.156 48.2969 127.062 48.2969C127.891 48.2969 128.383 48.8516 128.383 49.4375H125.586ZM130.094 51.6406C129.617 51.8672 128.633 52.0781 127.641 52.0781C126.633 52.0781 125.703 51.75 125.578 50.8828H130.578C131.125 47.7734 129.195 46.3438 127.023 46.3438C124.812 46.3438 123.18 47.8906 123.18 50.25C123.18 52.6094 124.844 54.1562 127.625 54.1562C128.773 54.1562 129.844 53.8203 130.43 53.4844L130.094 51.6406ZM139.266 54V49.125C139.266 47.3359 137.906 46.3438 136.492 46.3438C135.609 46.3438 134.703 46.6172 134.172 47.2891L134.094 46.5H131.836V54H134.297V49.8281C134.297 48.9922 134.93 48.5938 135.547 48.5938C136.141 48.5938 136.805 48.9922 136.805 49.8281V54H139.266ZM145.773 48.5078V46.5H143.656V44.0938H141.273V46.5H140.078V48.5078H141.273V51.3281C141.273 53.3281 142.516 54.1562 144.234 54.1562C144.859 54.1562 145.68 54.0156 146.227 53.8125L146.055 51.8125C144.867 52.0938 143.734 52.2031 143.734 50.9297V48.5078H145.773ZM153.141 51.7031C153.141 50.4219 152.469 49.7188 151.023 49.4844L150.297 49.3672C149.445 49.2344 149.141 49.0938 149.141 48.8281C149.141 48.5 149.539 48.3438 150.375 48.3438C151.023 48.3438 152.141 48.5469 152.617 48.7422L152.805 46.8281C152.086 46.5078 151.203 46.3438 150.242 46.3438C148.141 46.3438 146.797 47.3203 146.797 48.8438C146.797 50.1719 147.5 50.8828 149.062 51.125L149.758 51.2344C150.539 51.3594 150.766 51.4766 150.766 51.7578C150.766 52.0781 150.453 52.1953 149.633 52.1953C148.945 52.1953 147.875 51.9766 147.156 51.6953L146.914 53.6406C147.633 53.9609 148.734 54.1562 149.844 54.1562C151.867 54.1562 153.141 53.2031 153.141 51.7031ZM35 63.7344C34.3125 63.4219 33.4375 63.2344 32.5312 63.2344C30.6328 63.2344 28.7266 64.0391 28.7266 66.0938C28.7266 66.8203 28.9297 67.3516 29.3438 67.8594C28.25 68.375 27.4062 69.5078 27.4062 70.7344C27.4062 73.1094 29.4766 74.1562 31.6719 74.1562C33.1094 74.1562 34.1484 73.6797 34.8125 73.1094L35.7812 74H38.7344L36.3516 71.6484C36.8984 70.9922 37.5391 69.7266 37.5078 68.2344H35.1641C35.1875 69.0391 34.9609 69.7578 34.6953 70.0938L32.5625 68.0703C31.75 67.3047 31.2969 66.8438 31.2969 66.3672C31.2969 65.625 31.9375 65.3906 32.6719 65.3906C33.5469 65.3906 34.3906 65.6172 34.8203 65.8281L35 63.7344ZM31.7812 72.0547C30.6875 72.0547 29.9297 71.4688 29.9297 70.5703C29.9297 70.0234 30.2734 69.5391 30.7188 69.2891L33.2266 71.6484C32.7656 71.9609 32.2656 72.0547 31.7812 72.0547ZM42.5859 68.7031C42.5859 72.0312 45.25 74.1562 48.4375 74.1562C49.8203 74.1562 51.0703 73.8594 52.2812 73.2578L51.9297 71.0781C51.0234 71.6484 49.9688 71.8984 48.8359 71.8984C46.7578 71.8984 45.2188 70.6562 45.2188 68.6719C45.2188 66.4375 47.1328 65.5703 49.1172 65.5703C50.1172 65.5703 51.1328 65.7969 51.9219 66.1875L52.0859 63.9531C51.0312 63.4766 49.875 63.2344 48.7422 63.2344C45.5703 63.2344 42.5859 65.0703 42.5859 68.7031ZM55.8125 63H53.3516V74H55.8203V69.8281C55.8203 68.9922 56.4531 68.5938 57.0703 68.5938C57.6641 68.5938 58.3281 68.9922 58.3281 69.8281V74H60.7891V69.125C60.7891 67.3359 59.4297 66.3438 58.0156 66.3438C57.1953 66.3438 56.3516 66.5781 55.8125 67.1484V63ZM70.0469 74V66.5H67.6641L67.5859 67.2891C67.1562 66.7656 66.4297 66.3438 65.375 66.3438C63.375 66.3438 61.9062 68.0156 61.9062 70.2578C61.9062 72.5 63.375 74.1562 65.375 74.1562C66.4297 74.1562 67.1562 73.7422 67.5859 73.2109L67.6641 74H70.0469ZM65.9609 68.5312C66.9141 68.5391 67.5781 69.2422 67.5781 70.2578C67.5781 71.2734 66.9141 71.9844 65.9609 71.9844C65.0078 71.9844 64.3438 71.2734 64.3438 70.2578C64.3438 69.2422 65.0078 68.5312 65.9609 68.5312ZM78.9688 74V69.125C78.9688 67.3359 77.6094 66.3438 76.1953 66.3438C75.3125 66.3438 74.4062 66.6172 73.875 67.2891L73.7969 66.5H71.5391V74H74V69.8281C74 68.9922 74.6328 68.5938 75.25 68.5938C75.8438 68.5938 76.5078 68.9922 76.5078 69.8281V74H78.9688ZM84.2109 68.5469C85.1328 68.5469 85.8125 69.2422 85.8125 70.25C85.8125 71.25 85.1328 71.9531 84.2109 71.9531C83.2734 71.9531 82.5547 71.25 82.5547 70.25C82.5547 69.2109 83.2656 68.5469 84.2109 68.5469ZM85.7812 73.3281V73.7578C85.7812 74.875 84.3516 75.125 83.4922 75.125C82.4844 75.125 81.3359 74.8438 80.9922 74.625L80.7578 76.6641C81.3672 76.9453 82.375 77.2812 83.7109 77.2812C85.8125 77.2812 88.2344 76.3672 88.2344 73.8906V66.5H85.9297L85.8516 67.2891C85.4141 66.7422 84.7109 66.3438 83.5781 66.3438C81.4609 66.3438 80.0781 68.0156 80.0781 70.2656C80.0781 72.5 81.4609 74.1562 83.5781 74.1562C84.5078 74.1562 85.3906 73.8516 85.7812 73.3281ZM91.8047 69.4375C91.8672 68.8203 92.375 68.2969 93.2812 68.2969C94.1094 68.2969 94.6016 68.8516 94.6016 69.4375H91.8047ZM96.3125 71.6406C95.8359 71.8672 94.8516 72.0781 93.8594 72.0781C92.8516 72.0781 91.9219 71.75 91.7969 70.8828H96.7969C97.3438 67.7734 95.4141 66.3438 93.2422 66.3438C91.0312 66.3438 89.3984 67.8906 89.3984 70.25C89.3984 72.6094 91.0625 74.1562 93.8438 74.1562C94.9922 74.1562 96.0625 73.8203 96.6484 73.4844L96.3125 71.6406ZM101.664 68.7031C101.664 72.0312 104.328 74.1562 107.516 74.1562C108.898 74.1562 110.148 73.8594 111.359 73.2578L111.008 71.0781C110.102 71.6484 109.047 71.8984 107.914 71.8984C105.836 71.8984 104.297 70.6562 104.297 68.6719C104.297 66.4375 106.211 65.5703 108.195 65.5703C109.195 65.5703 110.211 65.7969 111 66.1875L111.164 63.9531C110.109 63.4766 108.953 63.2344 107.82 63.2344C104.648 63.2344 101.664 65.0703 101.664 68.7031ZM116.016 66.3438C113.695 66.3438 111.984 68.0156 111.984 70.25C111.984 72.4844 113.695 74.1562 116.016 74.1562C118.336 74.1562 120.047 72.4844 120.047 70.25C120.047 68.0156 118.336 66.3438 116.016 66.3438ZM116.016 68.5234C116.953 68.5234 117.609 69.2344 117.609 70.25C117.609 71.2656 116.953 71.9766 116.016 71.9766C115.078 71.9766 114.422 71.2656 114.422 70.25C114.422 69.2344 115.078 68.5234 116.016 68.5234ZM128.625 74V69.125C128.625 67.3359 127.266 66.3438 125.852 66.3438C124.969 66.3438 124.062 66.6172 123.531 67.2891L123.453 66.5H121.195V74H123.656V69.8281C123.656 68.9922 124.289 68.5938 124.906 68.5938C125.5 68.5938 126.164 68.9922 126.164 69.8281V74H128.625ZM135.133 68.5078V66.5H133.016V64.0938H130.633V66.5H129.438V68.5078H130.633V71.3281C130.633 73.3281 131.875 74.1562 133.594 74.1562C134.219 74.1562 135.039 74.0156 135.586 73.8125L135.414 71.8125C134.227 72.0938 133.094 72.2031 133.094 70.9297V68.5078H135.133ZM138.875 67.5234L138.797 66.5H136.477V74H138.938V70.3906C138.938 68.9922 139.727 68.4844 140.656 68.4844C140.969 68.4844 141.289 68.5391 141.602 68.6484L141.75 66.5C141.438 66.3984 141.133 66.3438 140.836 66.3438C139.969 66.3438 139.227 66.7812 138.875 67.5234ZM146.062 66.3438C143.742 66.3438 142.031 68.0156 142.031 70.25C142.031 72.4844 143.742 74.1562 146.062 74.1562C148.383 74.1562 150.094 72.4844 150.094 70.25C150.094 68.0156 148.383 66.3438 146.062 66.3438ZM146.062 68.5234C147 68.5234 147.656 69.2344 147.656 70.25C147.656 71.2656 147 71.9766 146.062 71.9766C145.125 71.9766 144.469 71.2656 144.469 70.25C144.469 69.2344 145.125 68.5234 146.062 68.5234ZM153.703 63H151.242V74H153.703V63Z" fill="#333333"/>
<path d="M585.453 50.9922H587.438L589.695 53.9922H592.781L590.062 50.4609C591.188 49.7969 591.961 48.5625 591.961 47.1875C591.961 44.9453 590.211 43.3906 587.922 43.3906H582.883V54H585.453V50.9922ZM587.742 45.5547C588.688 45.5547 589.328 46.2031 589.328 47.1875C589.328 48.1016 588.719 48.8281 587.742 48.8281H585.453V45.5547H587.742ZM595.602 49.4375C595.664 48.8203 596.172 48.2969 597.078 48.2969C597.906 48.2969 598.398 48.8516 598.398 49.4375H595.602ZM600.109 51.6406C599.633 51.8672 598.648 52.0781 597.656 52.0781C596.648 52.0781 595.719 51.75 595.594 50.8828H600.594C601.141 47.7734 599.211 46.3438 597.039 46.3438C594.828 46.3438 593.195 47.8906 593.195 50.25C593.195 52.6094 594.859 54.1562 597.641 54.1562C598.789 54.1562 599.859 53.8203 600.445 53.4844L600.109 51.6406ZM605.664 48.5469C606.586 48.5469 607.266 49.2422 607.266 50.25C607.266 51.25 606.586 51.9531 605.664 51.9531C604.727 51.9531 604.008 51.25 604.008 50.25C604.008 49.2109 604.719 48.5469 605.664 48.5469ZM607.234 53.3281V53.7578C607.234 54.875 605.805 55.125 604.945 55.125C603.938 55.125 602.789 54.8438 602.445 54.625L602.211 56.6641C602.82 56.9453 603.828 57.2812 605.164 57.2812C607.266 57.2812 609.688 56.3672 609.688 53.8906V46.5H607.383L607.305 47.2891C606.867 46.7422 606.164 46.3438 605.031 46.3438C602.914 46.3438 601.531 48.0156 601.531 50.2656C601.531 52.5 602.914 54.1562 605.031 54.1562C605.961 54.1562 606.844 53.8516 607.234 53.3281ZM615.938 46.5V50.6797C615.938 51.4297 615.453 51.9141 614.719 51.9141C614.07 51.9141 613.578 51.4219 613.578 50.6797V46.5H611.117V50.9141C611.117 52.7734 612.5 54.1562 614.719 54.1562C616.938 54.1562 618.398 52.7734 618.398 50.8672V46.5H615.938ZM622.281 43H619.82V54H622.281V43ZM631.594 54V46.5H629.211L629.133 47.2891C628.703 46.7656 627.977 46.3438 626.922 46.3438C624.922 46.3438 623.453 48.0156 623.453 50.2578C623.453 52.5 624.922 54.1562 626.922 54.1562C627.977 54.1562 628.703 53.7422 629.133 53.2109L629.211 54H631.594ZM627.508 48.5312C628.461 48.5391 629.125 49.2422 629.125 50.2578C629.125 51.2734 628.461 51.9844 627.508 51.9844C626.555 51.9844 625.891 51.2734 625.891 50.2578C625.891 49.2422 626.555 48.5312 627.508 48.5312ZM638.242 48.5078V46.5H636.125V44.0938H633.742V46.5H632.547V48.5078H633.742V51.3281C633.742 53.3281 634.984 54.1562 636.703 54.1562C637.328 54.1562 638.148 54.0156 638.695 53.8125L638.523 51.8125C637.336 52.0938 636.203 52.2031 636.203 50.9297V48.5078H638.242ZM643.203 46.3438C640.883 46.3438 639.172 48.0156 639.172 50.25C639.172 52.4844 640.883 54.1562 643.203 54.1562C645.523 54.1562 647.234 52.4844 647.234 50.25C647.234 48.0156 645.523 46.3438 643.203 46.3438ZM643.203 48.5234C644.141 48.5234 644.797 49.2344 644.797 50.25C644.797 51.2656 644.141 51.9766 643.203 51.9766C642.266 51.9766 641.609 51.2656 641.609 50.25C641.609 49.2344 642.266 48.5234 643.203 48.5234ZM650.781 47.5234L650.703 46.5H648.383V54H650.844V50.3906C650.844 48.9922 651.633 48.4844 652.562 48.4844C652.875 48.4844 653.195 48.5391 653.508 48.6484L653.656 46.5C653.344 46.3984 653.039 46.3438 652.742 46.3438C651.875 46.3438 651.133 46.7812 650.781 47.5234ZM656.922 54.0078C656.703 54.7734 656.133 55.1562 655.461 55.1562C655.18 55.1562 654.883 55.0859 654.586 54.9531L654.25 56.8906C654.773 57.1484 655.328 57.2812 655.867 57.2812C657.25 57.2812 658.453 56.5938 659.055 55.1016L662.531 46.5H659.781L658.234 51.5156L656.648 46.5H653.906L656.922 54.0078ZM670.906 43.2344C668.398 43.2344 666.742 44.5547 666.742 46.5312C666.742 48.4375 668.227 49.1328 669.641 49.5938L671.297 50.0156C672.07 50.2188 672.406 50.4688 672.406 50.9609C672.406 51.6719 671.602 51.9062 670.641 51.9062C669.18 51.9062 667.281 51.3594 667.016 51.0703L666.812 53.3281C667.508 53.7188 669.258 54.1562 670.82 54.1562C673.406 54.1562 675.047 52.8203 675.047 50.875C675.047 49.2031 674.078 48.3984 672.125 47.8359L670.609 47.3984C670 47.2266 669.375 47.0625 669.375 46.4062C669.375 45.6875 670.109 45.4531 671.016 45.4531C672.281 45.4531 673.883 45.9219 674.266 46.1719L674.477 43.9766C673.625 43.5547 672.445 43.2344 670.906 43.2344ZM681.18 48.5078V46.5H679.062V44.0938H676.68V46.5H675.484V48.5078H676.68V51.3281C676.68 53.3281 677.922 54.1562 679.641 54.1562C680.266 54.1562 681.086 54.0156 681.633 53.8125L681.461 51.8125C680.273 52.0938 679.141 52.2031 679.141 50.9297V48.5078H681.18ZM684.922 47.5234L684.844 46.5H682.523V54H684.984V50.3906C684.984 48.9922 685.773 48.4844 686.703 48.4844C687.016 48.4844 687.336 48.5391 687.648 48.6484L687.797 46.5C687.484 46.3984 687.18 46.3438 686.883 46.3438C686.016 46.3438 685.273 46.7812 684.922 47.5234ZM696.234 54V46.5H693.852L693.773 47.2891C693.344 46.7656 692.617 46.3438 691.562 46.3438C689.562 46.3438 688.094 48.0156 688.094 50.2578C688.094 52.5 689.562 54.1562 691.562 54.1562C692.617 54.1562 693.344 53.7422 693.773 53.2109L693.852 54H696.234ZM692.148 48.5312C693.102 48.5391 693.766 49.2422 693.766 50.2578C693.766 51.2734 693.102 51.9844 692.148 51.9844C691.195 51.9844 690.531 51.2734 690.531 50.2578C690.531 49.2422 691.195 48.5312 692.148 48.5312ZM702.883 48.5078V46.5H700.766V44.0938H698.383V46.5H697.188V48.5078H698.383V51.3281C698.383 53.3281 699.625 54.1562 701.344 54.1562C701.969 54.1562 702.789 54.0156 703.336 53.8125L703.164 51.8125C701.977 52.0938 700.844 52.2031 700.844 50.9297V48.5078H702.883ZM706.227 49.4375C706.289 48.8203 706.797 48.2969 707.703 48.2969C708.531 48.2969 709.023 48.8516 709.023 49.4375H706.227ZM710.734 51.6406C710.258 51.8672 709.273 52.0781 708.281 52.0781C707.273 52.0781 706.344 51.75 706.219 50.8828H711.219C711.766 47.7734 709.836 46.3438 707.664 46.3438C705.453 46.3438 703.82 47.8906 703.82 50.25C703.82 52.6094 705.484 54.1562 708.266 54.1562C709.414 54.1562 710.484 53.8203 711.07 53.4844L710.734 51.6406ZM716.289 48.5469C717.211 48.5469 717.891 49.2422 717.891 50.25C717.891 51.25 717.211 51.9531 716.289 51.9531C715.352 51.9531 714.633 51.25 714.633 50.25C714.633 49.2109 715.344 48.5469 716.289 48.5469ZM717.859 53.3281V53.7578C717.859 54.875 716.43 55.125 715.57 55.125C714.562 55.125 713.414 54.8438 713.07 54.625L712.836 56.6641C713.445 56.9453 714.453 57.2812 715.789 57.2812C717.891 57.2812 720.312 56.3672 720.312 53.8906V46.5H718.008L717.93 47.2891C717.492 46.7422 716.789 46.3438 715.656 46.3438C713.539 46.3438 712.156 48.0156 712.156 50.2656C712.156 52.5 713.539 54.1562 715.656 54.1562C716.586 54.1562 717.469 53.8516 717.859 53.3281ZM724.219 54.0078C724 54.7734 723.43 55.1562 722.758 55.1562C722.477 55.1562 722.18 55.0859 721.883 54.9531L721.547 56.8906C722.07 57.1484 722.625 57.2812 723.164 57.2812C724.547 57.2812 725.75 56.5938 726.352 55.1016L729.828 46.5H727.078L725.531 51.5156L723.945 46.5H721.203L724.219 54.0078ZM590.562 74V66.5H588.18L588.102 67.2891C587.672 66.7656 586.945 66.3438 585.891 66.3438C583.891 66.3438 582.422 68.0156 582.422 70.2578C582.422 72.5 583.891 74.1562 585.891 74.1562C586.945 74.1562 587.672 73.7422 588.102 73.2109L588.18 74H590.562ZM586.477 68.5312C587.43 68.5391 588.094 69.2422 588.094 70.2578C588.094 71.2734 587.43 71.9844 586.477 71.9844C585.523 71.9844 584.859 71.2734 584.859 70.2578C584.859 69.2422 585.523 68.5312 586.477 68.5312ZM599.484 74V69.125C599.484 67.3359 598.125 66.3438 596.711 66.3438C595.828 66.3438 594.922 66.6172 594.391 67.2891L594.312 66.5H592.055V74H594.516V69.8281C594.516 68.9922 595.148 68.5938 595.766 68.5938C596.359 68.5938 597.023 68.9922 597.023 69.8281V74H599.484ZM608.758 74V62.9844H606.367V67.2891C605.93 66.7422 605.227 66.3438 604.094 66.3438C601.977 66.3438 600.594 68.0156 600.594 70.2656C600.594 72.5 601.977 74.1562 604.094 74.1562C605.023 74.1562 605.852 73.875 606.297 73.4219L606.375 74H608.758ZM604.727 68.5469C605.648 68.5469 606.328 69.2422 606.328 70.25C606.328 71.25 605.648 71.9531 604.727 71.9531C603.789 71.9531 603.07 71.25 603.07 70.25C603.07 69.2109 603.781 68.5469 604.727 68.5469ZM616.844 63.3906H614.273V74H616.844V63.3906ZM625.906 74V69.125C625.906 67.3359 624.547 66.3438 623.133 66.3438C622.25 66.3438 621.344 66.6172 620.812 67.2891L620.734 66.5H618.477V74H620.938V69.8281C620.938 68.9922 621.57 68.5938 622.188 68.5938C622.781 68.5938 623.445 68.9922 623.445 69.8281V74H625.906ZM632.414 68.5078V66.5H630.297V64.0938H627.914V66.5H626.719V68.5078H627.914V71.3281C627.914 73.3281 629.156 74.1562 630.875 74.1562C631.5 74.1562 632.32 74.0156 632.867 73.8125L632.695 71.8125C631.508 72.0938 630.375 72.2031 630.375 70.9297V68.5078H632.414ZM635.758 69.4375C635.82 68.8203 636.328 68.2969 637.234 68.2969C638.062 68.2969 638.555 68.8516 638.555 69.4375H635.758ZM640.266 71.6406C639.789 71.8672 638.805 72.0781 637.812 72.0781C636.805 72.0781 635.875 71.75 635.75 70.8828H640.75C641.297 67.7734 639.367 66.3438 637.195 66.3438C634.984 66.3438 633.352 67.8906 633.352 70.25C633.352 72.6094 635.016 74.1562 637.797 74.1562C638.945 74.1562 640.016 73.8203 640.602 73.4844L640.266 71.6406ZM644.469 63H642.008V74H644.469V63ZM648.422 63H645.961V74H648.422V63ZM652.375 66.5H649.914V74H652.375V66.5ZM651.133 65.5391C651.93 65.5391 652.492 64.9922 652.492 64.1953C652.492 63.3906 651.93 62.8438 651.133 62.8438C650.336 62.8438 649.789 63.3984 649.789 64.1953C649.789 64.9922 650.344 65.5391 651.133 65.5391ZM657.68 68.5469C658.602 68.5469 659.281 69.2422 659.281 70.25C659.281 71.25 658.602 71.9531 657.68 71.9531C656.742 71.9531 656.023 71.25 656.023 70.25C656.023 69.2109 656.734 68.5469 657.68 68.5469ZM659.25 73.3281V73.7578C659.25 74.875 657.82 75.125 656.961 75.125C655.953 75.125 654.805 74.8438 654.461 74.625L654.227 76.6641C654.836 76.9453 655.844 77.2812 657.18 77.2812C659.281 77.2812 661.703 76.3672 661.703 73.8906V66.5H659.398L659.32 67.2891C658.883 66.7422 658.18 66.3438 657.047 66.3438C654.93 66.3438 653.547 68.0156 653.547 70.2656C653.547 72.5 654.93 74.1562 657.047 74.1562C657.977 74.1562 658.859 73.8516 659.25 73.3281ZM665.273 69.4375C665.336 68.8203 665.844 68.2969 666.75 68.2969C667.578 68.2969 668.07 68.8516 668.07 69.4375H665.273ZM669.781 71.6406C669.305 71.8672 668.32 72.0781 667.328 72.0781C666.32 72.0781 665.391 71.75 665.266 70.8828H670.266C670.812 67.7734 668.883 66.3438 666.711 66.3438C664.5 66.3438 662.867 67.8906 662.867 70.25C662.867 72.6094 664.531 74.1562 667.312 74.1562C668.461 74.1562 669.531 73.8203 670.117 73.4844L669.781 71.6406ZM678.953 74V69.125C678.953 67.3359 677.594 66.3438 676.18 66.3438C675.297 66.3438 674.391 66.6172 673.859 67.2891L673.781 66.5H671.523V74H673.984V69.8281C673.984 68.9922 674.617 68.5938 675.234 68.5938C675.828 68.5938 676.492 68.9922 676.492 69.8281V74H678.953ZM680.055 70.2656C680.055 72.5625 681.836 74.1562 684.234 74.1562C685.219 74.1562 685.898 73.9531 686.766 73.5391L686.523 71.3828C685.82 71.7188 685.32 71.8984 684.508 71.8984C683.398 71.8984 682.516 71.3359 682.516 70.25C682.516 68.9844 683.516 68.5703 684.641 68.5703C685.273 68.5703 685.945 68.7109 686.492 68.9375L686.672 66.8438C685.75 66.4609 685.062 66.3438 684.203 66.3438C681.883 66.3438 680.055 67.6875 680.055 70.2656ZM689.805 69.4375C689.867 68.8203 690.375 68.2969 691.281 68.2969C692.109 68.2969 692.602 68.8516 692.602 69.4375H689.805ZM694.312 71.6406C693.836 71.8672 692.852 72.0781 691.859 72.0781C690.852 72.0781 689.922 71.75 689.797 70.8828H694.797C695.344 67.7734 693.414 66.3438 691.242 66.3438C689.031 66.3438 687.398 67.8906 687.398 70.25C687.398 72.6094 689.062 74.1562 691.844 74.1562C692.992 74.1562 694.062 73.8203 694.648 73.4844L694.312 71.6406Z" fill="#333333"/>
<path d="M306.453 454.992H308.438L310.695 457.992H313.781L311.062 454.461C312.188 453.797 312.961 452.562 312.961 451.188C312.961 448.945 311.211 447.391 308.922 447.391H303.883V458H306.453V454.992ZM308.742 449.555C309.688 449.555 310.328 450.203 310.328 451.188C310.328 452.102 309.719 452.828 308.742 452.828H306.453V449.555H308.742ZM316.602 453.438C316.664 452.82 317.172 452.297 318.078 452.297C318.906 452.297 319.398 452.852 319.398 453.438H316.602ZM321.109 455.641C320.633 455.867 319.648 456.078 318.656 456.078C317.648 456.078 316.719 455.75 316.594 454.883H321.594C322.141 451.773 320.211 450.344 318.039 450.344C315.828 450.344 314.195 451.891 314.195 454.25C314.195 456.609 315.859 458.156 318.641 458.156C319.789 458.156 320.859 457.82 321.445 457.484L321.109 455.641ZM326.664 452.547C327.586 452.547 328.266 453.242 328.266 454.25C328.266 455.25 327.586 455.953 326.664 455.953C325.727 455.953 325.008 455.25 325.008 454.25C325.008 453.211 325.719 452.547 326.664 452.547ZM328.234 457.328V457.758C328.234 458.875 326.805 459.125 325.945 459.125C324.938 459.125 323.789 458.844 323.445 458.625L323.211 460.664C323.82 460.945 324.828 461.281 326.164 461.281C328.266 461.281 330.688 460.367 330.688 457.891V450.5H328.383L328.305 451.289C327.867 450.742 327.164 450.344 326.031 450.344C323.914 450.344 322.531 452.016 322.531 454.266C322.531 456.5 323.914 458.156 326.031 458.156C326.961 458.156 327.844 457.852 328.234 457.328ZM336.938 450.5V454.68C336.938 455.43 336.453 455.914 335.719 455.914C335.07 455.914 334.578 455.422 334.578 454.68V450.5H332.117V454.914C332.117 456.773 333.5 458.156 335.719 458.156C337.938 458.156 339.398 456.773 339.398 454.867V450.5H336.938ZM343.281 447H340.82V458H343.281V447ZM352.594 458V450.5H350.211L350.133 451.289C349.703 450.766 348.977 450.344 347.922 450.344C345.922 450.344 344.453 452.016 344.453 454.258C344.453 456.5 345.922 458.156 347.922 458.156C348.977 458.156 349.703 457.742 350.133 457.211L350.211 458H352.594ZM348.508 452.531C349.461 452.539 350.125 453.242 350.125 454.258C350.125 455.273 349.461 455.984 348.508 455.984C347.555 455.984 346.891 455.273 346.891 454.258C346.891 453.242 347.555 452.531 348.508 452.531ZM359.242 452.508V450.5H357.125V448.094H354.742V450.5H353.547V452.508H354.742V455.328C354.742 457.328 355.984 458.156 357.703 458.156C358.328 458.156 359.148 458.016 359.695 457.812L359.523 455.812C358.336 456.094 357.203 456.203 357.203 454.93V452.508H359.242ZM364.203 450.344C361.883 450.344 360.172 452.016 360.172 454.25C360.172 456.484 361.883 458.156 364.203 458.156C366.523 458.156 368.234 456.484 368.234 454.25C368.234 452.016 366.523 450.344 364.203 450.344ZM364.203 452.523C365.141 452.523 365.797 453.234 365.797 454.25C365.797 455.266 365.141 455.977 364.203 455.977C363.266 455.977 362.609 455.266 362.609 454.25C362.609 453.234 363.266 452.523 364.203 452.523ZM371.781 451.523L371.703 450.5H369.383V458H371.844V454.391C371.844 452.992 372.633 452.484 373.562 452.484C373.875 452.484 374.195 452.539 374.508 452.648L374.656 450.5C374.344 450.398 374.039 450.344 373.742 450.344C372.875 450.344 372.133 450.781 371.781 451.523ZM377.922 458.008C377.703 458.773 377.133 459.156 376.461 459.156C376.18 459.156 375.883 459.086 375.586 458.953L375.25 460.891C375.773 461.148 376.328 461.281 376.867 461.281C378.25 461.281 379.453 460.594 380.055 459.102L383.531 450.5H380.781L379.234 455.516L377.648 450.5H374.906L377.922 458.008ZM391.906 447.234C389.398 447.234 387.742 448.555 387.742 450.531C387.742 452.438 389.227 453.133 390.641 453.594L392.297 454.016C393.07 454.219 393.406 454.469 393.406 454.961C393.406 455.672 392.602 455.906 391.641 455.906C390.18 455.906 388.281 455.359 388.016 455.07L387.812 457.328C388.508 457.719 390.258 458.156 391.82 458.156C394.406 458.156 396.047 456.82 396.047 454.875C396.047 453.203 395.078 452.398 393.125 451.836L391.609 451.398C391 451.227 390.375 451.062 390.375 450.406C390.375 449.688 391.109 449.453 392.016 449.453C393.281 449.453 394.883 449.922 395.266 450.172L395.477 447.977C394.625 447.555 393.445 447.234 391.906 447.234ZM401.938 450.5V454.68C401.938 455.43 401.453 455.914 400.719 455.914C400.07 455.914 399.578 455.422 399.578 454.68V450.5H397.117V454.914C397.117 456.773 398.5 458.156 400.719 458.156C402.938 458.156 404.398 456.773 404.398 454.867V450.5H401.938ZM408.203 458L408.281 457.422C408.695 457.852 409.555 458.156 410.484 458.156C412.602 458.156 413.984 456.5 413.984 454.266C413.984 452.016 412.602 450.344 410.484 450.344C409.352 450.344 408.648 450.742 408.211 451.289V446.984H405.82V458H408.203ZM409.852 452.547C410.797 452.547 411.508 453.211 411.508 454.25C411.508 455.25 410.789 455.953 409.852 455.953C408.93 455.953 408.25 455.25 408.25 454.25C408.25 453.242 408.93 452.547 409.852 452.547ZM425.039 458H427.5V453.125C427.5 451.297 426.133 450.344 424.688 450.344C423.742 450.344 422.773 450.734 422.164 451.594C421.766 450.766 420.805 450.344 419.805 450.344C418.922 450.344 418.016 450.617 417.484 451.289L417.406 450.5H415.148V458H417.609V453.828C417.609 452.992 418.242 452.594 418.859 452.594C419.453 452.594 420.086 452.992 420.086 453.828V458H422.547V453.828C422.547 452.992 423.195 452.594 423.812 452.594C424.43 452.594 425.039 452.992 425.039 453.828V458ZM431.391 450.5H428.93V458H431.391V450.5ZM430.148 449.539C430.945 449.539 431.508 448.992 431.508 448.195C431.508 447.391 430.945 446.844 430.148 446.844C429.352 446.844 428.805 447.398 428.805 448.195C428.805 448.992 429.359 449.539 430.148 449.539ZM438.906 455.703C438.906 454.422 438.234 453.719 436.789 453.484L436.062 453.367C435.211 453.234 434.906 453.094 434.906 452.828C434.906 452.5 435.305 452.344 436.141 452.344C436.789 452.344 437.906 452.547 438.383 452.742L438.57 450.828C437.852 450.508 436.969 450.344 436.008 450.344C433.906 450.344 432.562 451.32 432.562 452.844C432.562 454.172 433.266 454.883 434.828 455.125L435.523 455.234C436.305 455.359 436.531 455.477 436.531 455.758C436.531 456.078 436.219 456.195 435.398 456.195C434.711 456.195 433.641 455.977 432.922 455.695L432.68 457.641C433.398 457.961 434.5 458.156 435.609 458.156C437.633 458.156 438.906 457.203 438.906 455.703ZM446.047 455.703C446.047 454.422 445.375 453.719 443.93 453.484L443.203 453.367C442.352 453.234 442.047 453.094 442.047 452.828C442.047 452.5 442.445 452.344 443.281 452.344C443.93 452.344 445.047 452.547 445.523 452.742L445.711 450.828C444.992 450.508 444.109 450.344 443.148 450.344C441.047 450.344 439.703 451.32 439.703 452.844C439.703 454.172 440.406 454.883 441.969 455.125L442.664 455.234C443.445 455.359 443.672 455.477 443.672 455.758C443.672 456.078 443.359 456.195 442.539 456.195C441.852 456.195 440.781 455.977 440.062 455.695L439.82 457.641C440.539 457.961 441.641 458.156 442.75 458.156C444.773 458.156 446.047 457.203 446.047 455.703ZM449.625 450.5H447.164V458H449.625V450.5ZM448.383 449.539C449.18 449.539 449.742 448.992 449.742 448.195C449.742 447.391 449.18 446.844 448.383 446.844C447.586 446.844 447.039 447.398 447.039 448.195C447.039 448.992 447.594 449.539 448.383 449.539ZM454.812 450.344C452.492 450.344 450.781 452.016 450.781 454.25C450.781 456.484 452.492 458.156 454.812 458.156C457.133 458.156 458.844 456.484 458.844 454.25C458.844 452.016 457.133 450.344 454.812 450.344ZM454.812 452.523C455.75 452.523 456.406 453.234 456.406 454.25C456.406 455.266 455.75 455.977 454.812 455.977C453.875 455.977 453.219 455.266 453.219 454.25C453.219 453.234 453.875 452.523 454.812 452.523ZM467.422 458V453.125C467.422 451.336 466.062 450.344 464.648 450.344C463.766 450.344 462.859 450.617 462.328 451.289L462.25 450.5H459.992V458H462.453V453.828C462.453 452.992 463.086 452.594 463.703 452.594C464.297 452.594 464.961 452.992 464.961 453.828V458H467.422ZM477.719 449.555C478.664 449.555 479.305 450.203 479.305 451.188C479.305 452.102 478.695 452.828 477.719 452.828H475.453V449.555H477.719ZM481.938 451.195C481.938 448.922 480.188 447.391 477.898 447.391H472.883V458H475.453V454.992H477.898C480.188 454.992 481.938 453.461 481.938 451.195ZM485.406 451.523L485.328 450.5H483.008V458H485.469V454.391C485.469 452.992 486.258 452.484 487.188 452.484C487.5 452.484 487.82 452.539 488.133 452.648L488.281 450.5C487.969 450.398 487.664 450.344 487.367 450.344C486.5 450.344 485.758 450.781 485.406 451.523ZM490.977 453.438C491.039 452.82 491.547 452.297 492.453 452.297C493.281 452.297 493.773 452.852 493.773 453.438H490.977ZM495.484 455.641C495.008 455.867 494.023 456.078 493.031 456.078C492.023 456.078 491.094 455.75 490.969 454.883H495.969C496.516 451.773 494.586 450.344 492.414 450.344C490.203 450.344 488.57 451.891 488.57 454.25C488.57 456.609 490.234 458.156 493.016 458.156C494.164 458.156 495.234 457.82 495.82 457.484L495.484 455.641ZM499.688 461.125V457.445C500.133 457.875 500.961 458.156 501.891 458.156C504.008 458.156 505.391 456.5 505.391 454.266C505.391 452.016 504.008 450.344 501.891 450.344C500.758 450.344 500.055 450.742 499.617 451.289L499.539 450.5H497.227V461.125H499.688ZM501.258 452.547C502.203 452.547 502.914 453.211 502.914 454.25C502.914 455.25 502.195 455.953 501.258 455.953C500.336 455.953 499.656 455.25 499.656 454.25C499.656 453.242 500.336 452.547 501.258 452.547ZM514.375 458V450.5H511.992L511.914 451.289C511.484 450.766 510.758 450.344 509.703 450.344C507.703 450.344 506.234 452.016 506.234 454.258C506.234 456.5 507.703 458.156 509.703 458.156C510.758 458.156 511.484 457.742 511.914 457.211L511.992 458H514.375ZM510.289 452.531C511.242 452.539 511.906 453.242 511.906 454.258C511.906 455.273 511.242 455.984 510.289 455.984C509.336 455.984 508.672 455.273 508.672 454.258C508.672 453.242 509.336 452.531 510.289 452.531ZM518.266 451.523L518.188 450.5H515.867V458H518.328V454.391C518.328 452.992 519.117 452.484 520.047 452.484C520.359 452.484 520.68 452.539 520.992 452.648L521.141 450.5C520.828 450.398 520.523 450.344 520.227 450.344C519.359 450.344 518.617 450.781 518.266 451.523ZM529.578 458V450.5H527.195L527.117 451.289C526.688 450.766 525.961 450.344 524.906 450.344C522.906 450.344 521.438 452.016 521.438 454.258C521.438 456.5 522.906 458.156 524.906 458.156C525.961 458.156 526.688 457.742 527.117 457.211L527.195 458H529.578ZM525.492 452.531C526.445 452.539 527.109 453.242 527.109 454.258C527.109 455.273 526.445 455.984 525.492 455.984C524.539 455.984 523.875 455.273 523.875 454.258C523.875 453.242 524.539 452.531 525.492 452.531ZM536.227 452.508V450.5H534.109V448.094H531.727V450.5H530.531V452.508H531.727V455.328C531.727 457.328 532.969 458.156 534.688 458.156C535.312 458.156 536.133 458.016 536.68 457.812L536.508 455.812C535.32 456.094 534.188 456.203 534.188 454.93V452.508H536.227ZM540.031 450.5H537.57V458H540.031V450.5ZM538.789 449.539C539.586 449.539 540.148 448.992 540.148 448.195C540.148 447.391 539.586 446.844 538.789 446.844C537.992 446.844 537.445 447.398 537.445 448.195C537.445 448.992 538 449.539 538.789 449.539ZM545.219 450.344C542.898 450.344 541.188 452.016 541.188 454.25C541.188 456.484 542.898 458.156 545.219 458.156C547.539 458.156 549.25 456.484 549.25 454.25C549.25 452.016 547.539 450.344 545.219 450.344ZM545.219 452.523C546.156 452.523 546.812 453.234 546.812 454.25C546.812 455.266 546.156 455.977 545.219 455.977C544.281 455.977 543.625 455.266 543.625 454.25C543.625 453.234 544.281 452.523 545.219 452.523ZM557.828 458V453.125C557.828 451.336 556.469 450.344 555.055 450.344C554.172 450.344 553.266 450.617 552.734 451.289L552.656 450.5H550.398V458H552.859V453.828C552.859 452.992 553.492 452.594 554.109 452.594C554.703 452.594 555.367 452.992 555.367 453.828V458H557.828ZM565.281 455.703C565.281 454.422 564.609 453.719 563.164 453.484L562.438 453.367C561.586 453.234 561.281 453.094 561.281 452.828C561.281 452.5 561.68 452.344 562.516 452.344C563.164 452.344 564.281 452.547 564.758 452.742L564.945 450.828C564.227 450.508 563.344 450.344 562.383 450.344C560.281 450.344 558.938 451.32 558.938 452.844C558.938 454.172 559.641 454.883 561.203 455.125L561.898 455.234C562.68 455.359 562.906 455.477 562.906 455.758C562.906 456.078 562.594 456.195 561.773 456.195C561.086 456.195 560.016 455.977 559.297 455.695L559.055 457.641C559.773 457.961 560.875 458.156 561.984 458.156C564.008 458.156 565.281 457.203 565.281 455.703ZM566.906 456.023L565.836 460.055H567.836L569.344 456.023H566.906ZM577.672 454.055L579.188 449.961L580.695 454.055H577.672ZM581.43 456.055L582.148 458H584.898L580.703 447.391H577.656L573.469 458H576.219L576.938 456.055H581.43ZM589.414 452.547C590.336 452.547 591.016 453.242 591.016 454.25C591.016 455.25 590.336 455.953 589.414 455.953C588.477 455.953 587.758 455.25 587.758 454.25C587.758 453.211 588.469 452.547 589.414 452.547ZM590.984 457.328V457.758C590.984 458.875 589.555 459.125 588.695 459.125C587.688 459.125 586.539 458.844 586.195 458.625L585.961 460.664C586.57 460.945 587.578 461.281 588.914 461.281C591.016 461.281 593.438 460.367 593.438 457.891V450.5H591.133L591.055 451.289C590.617 450.742 589.914 450.344 588.781 450.344C586.664 450.344 585.281 452.016 585.281 454.266C585.281 456.5 586.664 458.156 588.781 458.156C589.711 458.156 590.594 457.852 590.984 457.328ZM597.008 453.438C597.07 452.82 597.578 452.297 598.484 452.297C599.312 452.297 599.805 452.852 599.805 453.438H597.008ZM601.516 455.641C601.039 455.867 600.055 456.078 599.062 456.078C598.055 456.078 597.125 455.75 597 454.883H602C602.547 451.773 600.617 450.344 598.445 450.344C596.234 450.344 594.602 451.891 594.602 454.25C594.602 456.609 596.266 458.156 599.047 458.156C600.195 458.156 601.266 457.82 601.852 457.484L601.516 455.641ZM610.688 458V453.125C610.688 451.336 609.328 450.344 607.914 450.344C607.031 450.344 606.125 450.617 605.594 451.289L605.516 450.5H603.258V458H605.719V453.828C605.719 452.992 606.352 452.594 606.969 452.594C607.562 452.594 608.227 452.992 608.227 453.828V458H610.688ZM611.789 454.266C611.789 456.562 613.57 458.156 615.969 458.156C616.953 458.156 617.633 457.953 618.5 457.539L618.258 455.383C617.555 455.719 617.055 455.898 616.242 455.898C615.133 455.898 614.25 455.336 614.25 454.25C614.25 452.984 615.25 452.57 616.375 452.57C617.008 452.57 617.68 452.711 618.227 452.938L618.406 450.844C617.484 450.461 616.797 450.344 615.938 450.344C613.617 450.344 611.789 451.688 611.789 454.266ZM622 458.008C621.781 458.773 621.211 459.156 620.539 459.156C620.258 459.156 619.961 459.086 619.664 458.953L619.328 460.891C619.852 461.148 620.406 461.281 620.945 461.281C622.328 461.281 623.531 460.594 624.133 459.102L627.609 450.5H624.859L623.312 455.516L621.727 450.5H618.984L622 458.008ZM306.453 471.594L311.844 478H314.07V467.391H311.5V473.859L306.07 467.391H303.883V478H306.453V471.594ZM317.648 473.438C317.711 472.82 318.219 472.297 319.125 472.297C319.953 472.297 320.445 472.852 320.445 473.438H317.648ZM322.156 475.641C321.68 475.867 320.695 476.078 319.703 476.078C318.695 476.078 317.766 475.75 317.641 474.883H322.641C323.188 471.773 321.258 470.344 319.086 470.344C316.875 470.344 315.242 471.891 315.242 474.25C315.242 476.609 316.906 478.156 319.688 478.156C320.836 478.156 321.906 477.82 322.492 477.484L322.156 475.641ZM327.711 472.547C328.633 472.547 329.312 473.242 329.312 474.25C329.312 475.25 328.633 475.953 327.711 475.953C326.773 475.953 326.055 475.25 326.055 474.25C326.055 473.211 326.766 472.547 327.711 472.547ZM329.281 477.328V477.758C329.281 478.875 327.852 479.125 326.992 479.125C325.984 479.125 324.836 478.844 324.492 478.625L324.258 480.664C324.867 480.945 325.875 481.281 327.211 481.281C329.312 481.281 331.734 480.367 331.734 477.891V470.5H329.43L329.352 471.289C328.914 470.742 328.211 470.344 327.078 470.344C324.961 470.344 323.578 472.016 323.578 474.266C323.578 476.5 324.961 478.156 327.078 478.156C328.008 478.156 328.891 477.852 329.281 477.328ZM336.922 470.344C334.602 470.344 332.891 472.016 332.891 474.25C332.891 476.484 334.602 478.156 336.922 478.156C339.242 478.156 340.953 476.484 340.953 474.25C340.953 472.016 339.242 470.344 336.922 470.344ZM336.922 472.523C337.859 472.523 338.516 473.234 338.516 474.25C338.516 475.266 337.859 475.977 336.922 475.977C335.984 475.977 335.328 475.266 335.328 474.25C335.328 473.234 335.984 472.523 336.922 472.523ZM347.133 472.508V470.5H345.016V468.094H342.633V470.5H341.438V472.508H342.633V475.328C342.633 477.328 343.875 478.156 345.594 478.156C346.219 478.156 347.039 478.016 347.586 477.812L347.414 475.812C346.227 476.094 345.094 476.203 345.094 474.93V472.508H347.133ZM350.938 470.5H348.477V478H350.938V470.5ZM349.695 469.539C350.492 469.539 351.055 468.992 351.055 468.195C351.055 467.391 350.492 466.844 349.695 466.844C348.898 466.844 348.352 467.398 348.352 468.195C348.352 468.992 348.906 469.539 349.695 469.539ZM360.25 478V470.5H357.867L357.789 471.289C357.359 470.766 356.633 470.344 355.578 470.344C353.578 470.344 352.109 472.016 352.109 474.258C352.109 476.5 353.578 478.156 355.578 478.156C356.633 478.156 357.359 477.742 357.789 477.211L357.867 478H360.25ZM356.164 472.531C357.117 472.539 357.781 473.242 357.781 474.258C357.781 475.273 357.117 475.984 356.164 475.984C355.211 475.984 354.547 475.273 354.547 474.258C354.547 473.242 355.211 472.531 356.164 472.531ZM366.898 472.508V470.5H364.781V468.094H362.398V470.5H361.203V472.508H362.398V475.328C362.398 477.328 363.641 478.156 365.359 478.156C365.984 478.156 366.805 478.016 367.352 477.812L367.18 475.812C365.992 476.094 364.859 476.203 364.859 474.93V472.508H366.898ZM370.703 470.5H368.242V478H370.703V470.5ZM369.461 469.539C370.258 469.539 370.82 468.992 370.82 468.195C370.82 467.391 370.258 466.844 369.461 466.844C368.664 466.844 368.117 467.398 368.117 468.195C368.117 468.992 368.672 469.539 369.461 469.539ZM375.891 470.344C373.57 470.344 371.859 472.016 371.859 474.25C371.859 476.484 373.57 478.156 375.891 478.156C378.211 478.156 379.922 476.484 379.922 474.25C379.922 472.016 378.211 470.344 375.891 470.344ZM375.891 472.523C376.828 472.523 377.484 473.234 377.484 474.25C377.484 475.266 376.828 475.977 375.891 475.977C374.953 475.977 374.297 475.266 374.297 474.25C374.297 473.234 374.953 472.523 375.891 472.523ZM388.5 478V473.125C388.5 471.336 387.141 470.344 385.727 470.344C384.844 470.344 383.938 470.617 383.406 471.289L383.328 470.5H381.07V478H383.531V473.828C383.531 472.992 384.164 472.594 384.781 472.594C385.375 472.594 386.039 472.992 386.039 473.828V478H388.5ZM390.438 476.023L389.367 480.055H391.367L392.875 476.023H390.438ZM405.922 478V470.5H403.539L403.461 471.289C403.031 470.766 402.305 470.344 401.25 470.344C399.25 470.344 397.781 472.016 397.781 474.258C397.781 476.5 399.25 478.156 401.25 478.156C402.305 478.156 403.031 477.742 403.461 477.211L403.539 478H405.922ZM401.836 472.531C402.789 472.539 403.453 473.242 403.453 474.258C403.453 475.273 402.789 475.984 401.836 475.984C400.883 475.984 400.219 475.273 400.219 474.258C400.219 473.242 400.883 472.531 401.836 472.531ZM414.844 478V473.125C414.844 471.336 413.484 470.344 412.07 470.344C411.188 470.344 410.281 470.617 409.75 471.289L409.672 470.5H407.414V478H409.875V473.828C409.875 472.992 410.508 472.594 411.125 472.594C411.719 472.594 412.383 472.992 412.383 473.828V478H414.844ZM424.117 478V466.984H421.727V471.289C421.289 470.742 420.586 470.344 419.453 470.344C417.336 470.344 415.953 472.016 415.953 474.266C415.953 476.5 417.336 478.156 419.453 478.156C420.383 478.156 421.211 477.875 421.656 477.422L421.734 478H424.117ZM420.086 472.547C421.008 472.547 421.688 473.242 421.688 474.25C421.688 475.25 421.008 475.953 420.086 475.953C419.148 475.953 418.43 475.25 418.43 474.25C418.43 473.211 419.141 472.547 420.086 472.547ZM434.469 469.555C435.414 469.555 436.055 470.203 436.055 471.188C436.055 472.102 435.445 472.828 434.469 472.828H432.203V469.555H434.469ZM438.688 471.195C438.688 468.922 436.938 467.391 434.648 467.391H429.633V478H432.203V474.992H434.648C436.938 474.992 438.688 473.461 438.688 471.195ZM443.328 470.344C441.008 470.344 439.297 472.016 439.297 474.25C439.297 476.484 441.008 478.156 443.328 478.156C445.648 478.156 447.359 476.484 447.359 474.25C447.359 472.016 445.648 470.344 443.328 470.344ZM443.328 472.523C444.266 472.523 444.922 473.234 444.922 474.25C444.922 475.266 444.266 475.977 443.328 475.977C442.391 475.977 441.734 475.266 441.734 474.25C441.734 473.234 442.391 472.523 443.328 472.523ZM454.531 475.703C454.531 474.422 453.859 473.719 452.414 473.484L451.688 473.367C450.836 473.234 450.531 473.094 450.531 472.828C450.531 472.5 450.93 472.344 451.766 472.344C452.414 472.344 453.531 472.547 454.008 472.742L454.195 470.828C453.477 470.508 452.594 470.344 451.633 470.344C449.531 470.344 448.188 471.32 448.188 472.844C448.188 474.172 448.891 474.883 450.453 475.125L451.148 475.234C451.93 475.359 452.156 475.477 452.156 475.758C452.156 476.078 451.844 476.195 451.023 476.195C450.336 476.195 449.266 475.977 448.547 475.695L448.305 477.641C449.023 477.961 450.125 478.156 451.234 478.156C453.258 478.156 454.531 477.203 454.531 475.703ZM460.805 472.508V470.5H458.688V468.094H456.305V470.5H455.109V472.508H456.305V475.328C456.305 477.328 457.547 478.156 459.266 478.156C459.891 478.156 460.711 478.016 461.258 477.812L461.086 475.812C459.898 476.094 458.766 476.203 458.766 474.93V472.508H460.805ZM467.539 472.781H461.844V474.688H467.539V472.781ZM478.82 478H481.281V473.125C481.281 471.297 479.914 470.344 478.469 470.344C477.523 470.344 476.555 470.734 475.945 471.594C475.547 470.766 474.586 470.344 473.586 470.344C472.703 470.344 471.797 470.617 471.266 471.289L471.188 470.5H468.93V478H471.391V473.828C471.391 472.992 472.023 472.594 472.641 472.594C473.234 472.594 473.867 472.992 473.867 473.828V478H476.328V473.828C476.328 472.992 476.977 472.594 477.594 472.594C478.211 472.594 478.82 472.992 478.82 473.828V478ZM490.531 478V470.5H488.148L488.07 471.289C487.641 470.766 486.914 470.344 485.859 470.344C483.859 470.344 482.391 472.016 482.391 474.258C482.391 476.5 483.859 478.156 485.859 478.156C486.914 478.156 487.641 477.742 488.07 477.211L488.148 478H490.531ZM486.445 472.531C487.398 472.539 488.062 473.242 488.062 474.258C488.062 475.273 487.398 475.984 486.445 475.984C485.492 475.984 484.828 475.273 484.828 474.258C484.828 473.242 485.492 472.531 486.445 472.531ZM494.422 471.523L494.344 470.5H492.023V478H494.484V474.391C494.484 472.992 495.273 472.484 496.203 472.484C496.516 472.484 496.836 472.539 497.148 472.648L497.297 470.5C496.984 470.398 496.68 470.344 496.383 470.344C495.516 470.344 494.773 470.781 494.422 471.523ZM500.609 467H498.148V478H500.609V475.18H501.492L503.398 478H506.344L503.508 474.133L505.781 470.5H503.039L501.57 473.031H500.609V467ZM508.664 473.438C508.727 472.82 509.234 472.297 510.141 472.297C510.969 472.297 511.461 472.852 511.461 473.438H508.664ZM513.172 475.641C512.695 475.867 511.711 476.078 510.719 476.078C509.711 476.078 508.781 475.75 508.656 474.883H513.656C514.203 471.773 512.273 470.344 510.102 470.344C507.891 470.344 506.258 471.891 506.258 474.25C506.258 476.609 507.922 478.156 510.703 478.156C511.852 478.156 512.922 477.82 513.508 477.484L513.172 475.641ZM519.961 472.508V470.5H517.844V468.094H515.461V470.5H514.266V472.508H515.461V475.328C515.461 477.328 516.703 478.156 518.422 478.156C519.047 478.156 519.867 478.016 520.414 477.812L520.242 475.812C519.055 476.094 517.922 476.203 517.922 474.93V472.508H519.961ZM529.109 467.234C526.602 467.234 524.945 468.555 524.945 470.531C524.945 472.438 526.43 473.133 527.844 473.594L529.5 474.016C530.273 474.219 530.609 474.469 530.609 474.961C530.609 475.672 529.805 475.906 528.844 475.906C527.383 475.906 525.484 475.359 525.219 475.07L525.016 477.328C525.711 477.719 527.461 478.156 529.023 478.156C531.609 478.156 533.25 476.82 533.25 474.875C533.25 473.203 532.281 472.398 530.328 471.836L528.812 471.398C528.203 471.227 527.578 471.062 527.578 470.406C527.578 469.688 528.312 469.453 529.219 469.453C530.484 469.453 532.086 469.922 532.469 470.172L532.68 467.977C531.828 467.555 530.648 467.234 529.109 467.234ZM539.141 470.5V474.68C539.141 475.43 538.656 475.914 537.922 475.914C537.273 475.914 536.781 475.422 536.781 474.68V470.5H534.32V474.914C534.32 476.773 535.703 478.156 537.922 478.156C540.141 478.156 541.602 476.773 541.602 474.867V470.5H539.141ZM545.484 481.125V477.445C545.93 477.875 546.758 478.156 547.688 478.156C549.805 478.156 551.188 476.5 551.188 474.266C551.188 472.016 549.805 470.344 547.688 470.344C546.555 470.344 545.852 470.742 545.414 471.289L545.336 470.5H543.023V481.125H545.484ZM547.055 472.547C548 472.547 548.711 473.211 548.711 474.25C548.711 475.25 547.992 475.953 547.055 475.953C546.133 475.953 545.453 475.25 545.453 474.25C545.453 473.242 546.133 472.547 547.055 472.547ZM554.812 481.125V477.445C555.258 477.875 556.086 478.156 557.016 478.156C559.133 478.156 560.516 476.5 560.516 474.266C560.516 472.016 559.133 470.344 557.016 470.344C555.883 470.344 555.18 470.742 554.742 471.289L554.664 470.5H552.352V481.125H554.812ZM556.383 472.547C557.328 472.547 558.039 473.211 558.039 474.25C558.039 475.25 557.32 475.953 556.383 475.953C555.461 475.953 554.781 475.25 554.781 474.25C554.781 473.242 555.461 472.547 556.383 472.547ZM565.375 470.344C563.055 470.344 561.344 472.016 561.344 474.25C561.344 476.484 563.055 478.156 565.375 478.156C567.695 478.156 569.406 476.484 569.406 474.25C569.406 472.016 567.695 470.344 565.375 470.344ZM565.375 472.523C566.312 472.523 566.969 473.234 566.969 474.25C566.969 475.266 566.312 475.977 565.375 475.977C564.438 475.977 563.781 475.266 563.781 474.25C563.781 473.234 564.438 472.523 565.375 472.523ZM572.953 471.523L572.875 470.5H570.555V478H573.016V474.391C573.016 472.992 573.805 472.484 574.734 472.484C575.047 472.484 575.367 472.539 575.68 472.648L575.828 470.5C575.516 470.398 575.211 470.344 574.914 470.344C574.047 470.344 573.305 470.781 572.953 471.523ZM581.836 472.508V470.5H579.719V468.094H577.336V470.5H576.141V472.508H577.336V475.328C577.336 477.328 578.578 478.156 580.297 478.156C580.922 478.156 581.742 478.016 582.289 477.812L582.117 475.812C580.93 476.094 579.797 476.203 579.797 474.93V472.508H581.836Z" fill="#333333"/>
<path d="M182 151.64L215.281 138.363L221.826 135.752L239.635 169C258.958 121.895 303.393 87.7327 356.153 83.2922C367.261 71.6667 379.082 59.2824 383 55.1767C379.349 50.7585 367.55 36.5222 356.353 23C276.434 27.5744 209.026 79.7666 182 151.64Z" fill="url(#paint0_linear_3060_8624)"/>
<path d="M377 23L404.392 56.0881L378.336 83.3897C431.25 87.3219 476.013 121.147 495.766 168.087C510.219 175.08 525.608 182.542 530.708 185C533.759 180.13 543.624 164.468 553 149.611C525.118 78.0947 457.172 26.597 377 23Z" fill="url(#paint1_linear_3060_8624)"/>
<path d="M243.655 377L240.895 334.306L247.817 333.059L278 327.599C248.018 302.152 228.942 264.205 228.942 221.845C228.942 210.971 230.233 200.387 232.615 190.226C225.025 176.077 216.945 160.991 214.252 156C208.932 158.117 191.77 164.958 175.477 171.464C171.248 187.575 169 204.443 169 221.868C169 284.571 198.181 340.568 243.655 377Z" fill="url(#paint2_linear_3060_8624)"/>
<path d="M258.022 347.642C258.4 353.362 259.58 371.819 260.714 389.36C291.641 409.381 328.419 421 367.867 421C407.315 421 445.673 408.867 477 388.064L435.572 377.472L436.529 370.478L440.667 340C419.508 353.206 394.566 360.848 367.867 360.848C341.168 360.848 317.116 353.496 296.202 340.737C280.405 343.598 263.585 346.659 258 347.664L258.022 347.642Z" fill="url(#paint3_linear_3060_8624)"/>
<path d="M503.187 188.949C505.766 199.516 507.144 210.574 507.144 221.923C507.144 263.855 488.54 301.475 459.245 326.987C457.067 342.982 454.756 360.049 454 365.701C459.534 367.109 477.338 371.666 494.252 376C538.639 339.452 567 283.96 567 221.923C567 203.604 564.511 185.844 559.887 169L537.016 205.369L503.187 188.949Z" fill="url(#paint4_linear_3060_8624)"/>
<ellipse cx="368" cy="221.573" rx="118" ry="118.573" fill="#89BBD9"/>
<g style="mix-blend-mode:multiply">
<ellipse cx="368" cy="221.573" rx="108.835" ry="108.262" fill="#1C3B66"/>
</g>
<path d="M321.252 184.842L321.01 186.514H315.136V191.464H320.24V193.136H315.136V198.328H321.428V200H313.046V184.842H321.252ZM329.95 188.142C331.006 188.142 331.828 188.457 332.414 189.088C333.016 189.719 333.316 190.584 333.316 191.684V200H331.292V191.97C331.292 191.149 331.138 190.569 330.83 190.232C330.522 189.895 330.068 189.726 329.466 189.726C328.85 189.726 328.308 189.902 327.838 190.254C327.369 190.606 326.929 191.112 326.518 191.772V200H324.494V188.406H326.232L326.408 190.122C326.819 189.506 327.325 189.022 327.926 188.67C328.542 188.318 329.217 188.142 329.95 188.142ZM346.361 183.742V200H344.579L344.381 198.394C344 198.981 343.523 199.443 342.951 199.78C342.379 200.103 341.741 200.264 341.037 200.264C339.658 200.264 338.58 199.721 337.803 198.636C337.04 197.551 336.659 196.091 336.659 194.258C336.659 193.07 336.842 192.014 337.209 191.09C337.576 190.166 338.104 189.447 338.793 188.934C339.482 188.406 340.289 188.142 341.213 188.142C342.401 188.142 343.442 188.619 344.337 189.572V183.5L346.361 183.742ZM341.477 198.658C342.093 198.658 342.621 198.519 343.061 198.24C343.501 197.947 343.926 197.514 344.337 196.942V191.266C343.956 190.767 343.545 190.393 343.105 190.144C342.68 189.88 342.196 189.748 341.653 189.748C340.758 189.748 340.062 190.122 339.563 190.87C339.079 191.618 338.837 192.733 338.837 194.214C338.837 195.71 339.064 196.825 339.519 197.558C339.974 198.291 340.626 198.658 341.477 198.658ZM349.763 193.972V192.256H355.989V193.972H349.763ZM365.151 199.472C364.388 200 363.523 200.264 362.555 200.264C361.572 200.264 360.802 199.985 360.245 199.428C359.702 198.856 359.431 198.035 359.431 196.964V189.968H357.407V188.406H359.431V185.788L361.455 185.546V188.406H364.205L363.985 189.968H361.455V196.876C361.455 197.477 361.558 197.917 361.763 198.196C361.983 198.46 362.342 198.592 362.841 198.592C363.296 198.592 363.809 198.438 364.381 198.13L365.151 199.472ZM371.282 188.142C372.91 188.142 374.171 188.685 375.066 189.77C375.975 190.855 376.43 192.329 376.43 194.192C376.43 195.395 376.225 196.458 375.814 197.382C375.403 198.291 374.809 199.003 374.032 199.516C373.255 200.015 372.331 200.264 371.26 200.264C369.632 200.264 368.363 199.721 367.454 198.636C366.545 197.551 366.09 196.077 366.09 194.214C366.09 193.011 366.295 191.955 366.706 191.046C367.117 190.122 367.711 189.411 368.488 188.912C369.265 188.399 370.197 188.142 371.282 188.142ZM371.282 189.77C369.273 189.77 368.268 191.251 368.268 194.214C368.268 197.162 369.265 198.636 371.26 198.636C373.255 198.636 374.252 197.155 374.252 194.192C374.252 191.244 373.262 189.77 371.282 189.77ZM379.004 193.972V192.256H385.23V193.972H379.004ZM396.963 184.842L396.721 186.514H390.847V191.464H395.951V193.136H390.847V198.328H397.139V200H388.757V184.842H396.963ZM405.661 188.142C406.717 188.142 407.539 188.457 408.125 189.088C408.727 189.719 409.027 190.584 409.027 191.684V200H407.003V191.97C407.003 191.149 406.849 190.569 406.541 190.232C406.233 189.895 405.779 189.726 405.177 189.726C404.561 189.726 404.019 189.902 403.549 190.254C403.08 190.606 402.64 191.112 402.229 191.772V200H400.205V188.406H401.943L402.119 190.122C402.53 189.506 403.036 189.022 403.637 188.67C404.253 188.318 404.928 188.142 405.661 188.142ZM422.072 183.742V200H420.29L420.092 198.394C419.711 198.981 419.234 199.443 418.662 199.78C418.09 200.103 417.452 200.264 416.748 200.264C415.369 200.264 414.291 199.721 413.514 198.636C412.751 197.551 412.37 196.091 412.37 194.258C412.37 193.07 412.553 192.014 412.92 191.09C413.287 190.166 413.815 189.447 414.504 188.934C415.193 188.406 416 188.142 416.924 188.142C418.112 188.142 419.153 188.619 420.048 189.572V183.5L422.072 183.742ZM417.188 198.658C417.804 198.658 418.332 198.519 418.772 198.24C419.212 197.947 419.637 197.514 420.048 196.942V191.266C419.667 190.767 419.256 190.393 418.816 190.144C418.391 189.88 417.907 189.748 417.364 189.748C416.469 189.748 415.773 190.122 415.274 190.87C414.79 191.618 414.548 192.733 414.548 194.214C414.548 195.71 414.775 196.825 415.23 197.558C415.685 198.291 416.337 198.658 417.188 198.658ZM320.594 223.576H318.24V230H316.15V214.842H320.132C322.024 214.842 323.454 215.201 324.422 215.92C325.405 216.639 325.896 217.709 325.896 219.132C325.896 220.188 325.625 221.046 325.082 221.706C324.54 222.366 323.718 222.865 322.618 223.202L326.71 230H324.224L320.594 223.576ZM320.352 221.97C321.452 221.97 322.281 221.75 322.838 221.31C323.396 220.855 323.674 220.129 323.674 219.132C323.674 218.193 323.388 217.519 322.816 217.108C322.259 216.683 321.357 216.47 320.11 216.47H318.24V221.97H320.352ZM337.794 223.862C337.794 224.199 337.78 224.544 337.75 224.896H330.358C330.446 226.172 330.769 227.111 331.326 227.712C331.884 228.313 332.602 228.614 333.482 228.614C334.04 228.614 334.553 228.533 335.022 228.372C335.492 228.211 335.983 227.954 336.496 227.602L337.376 228.812C336.144 229.78 334.795 230.264 333.328 230.264C331.715 230.264 330.454 229.736 329.544 228.68C328.65 227.624 328.202 226.172 328.202 224.324C328.202 223.121 328.393 222.058 328.774 221.134C329.17 220.195 329.728 219.462 330.446 218.934C331.18 218.406 332.038 218.142 333.02 218.142C334.56 218.142 335.741 218.648 336.562 219.66C337.384 220.672 337.794 222.073 337.794 223.862ZM335.792 223.268C335.792 222.124 335.565 221.251 335.11 220.65C334.656 220.049 333.974 219.748 333.064 219.748C331.407 219.748 330.505 220.965 330.358 223.4H335.792V223.268ZM350.377 218.934C349.937 219.081 349.453 219.176 348.925 219.22C348.397 219.264 347.751 219.286 346.989 219.286C348.353 219.902 349.035 220.877 349.035 222.212C349.035 223.371 348.639 224.317 347.847 225.05C347.055 225.783 345.977 226.15 344.613 226.15C344.085 226.15 343.593 226.077 343.139 225.93C342.963 226.047 342.823 226.209 342.721 226.414C342.618 226.605 342.567 226.803 342.567 227.008C342.567 227.639 343.073 227.954 344.085 227.954H345.933C346.71 227.954 347.399 228.093 348.001 228.372C348.602 228.651 349.064 229.032 349.387 229.516C349.724 230 349.893 230.55 349.893 231.166C349.893 232.295 349.431 233.161 348.507 233.762C347.583 234.378 346.233 234.686 344.459 234.686C343.212 234.686 342.222 234.554 341.489 234.29C340.77 234.041 340.257 233.659 339.949 233.146C339.641 232.633 339.487 231.973 339.487 231.166H341.313C341.313 231.635 341.401 232.002 341.577 232.266C341.753 232.545 342.068 232.75 342.523 232.882C342.977 233.029 343.623 233.102 344.459 233.102C345.676 233.102 346.541 232.948 347.055 232.64C347.583 232.347 347.847 231.899 347.847 231.298C347.847 230.755 347.641 230.345 347.231 230.066C346.82 229.787 346.248 229.648 345.515 229.648H343.689C342.706 229.648 341.958 229.443 341.445 229.032C340.946 228.607 340.697 228.079 340.697 227.448C340.697 227.067 340.807 226.7 341.027 226.348C341.247 225.996 341.562 225.681 341.973 225.402C341.298 225.05 340.799 224.617 340.477 224.104C340.169 223.576 340.015 222.938 340.015 222.19C340.015 221.413 340.205 220.716 340.587 220.1C340.983 219.484 341.518 219.007 342.193 218.67C342.882 218.318 343.645 218.142 344.481 218.142C345.39 218.157 346.153 218.127 346.769 218.054C347.385 217.966 347.891 217.856 348.287 217.724C348.697 217.577 349.196 217.372 349.783 217.108L350.377 218.934ZM344.481 219.594C343.718 219.594 343.124 219.836 342.699 220.32C342.288 220.789 342.083 221.413 342.083 222.19C342.083 222.982 342.295 223.62 342.721 224.104C343.146 224.573 343.747 224.808 344.525 224.808C345.317 224.808 345.918 224.581 346.329 224.126C346.754 223.657 346.967 223.004 346.967 222.168C346.967 220.452 346.138 219.594 344.481 219.594ZM360.865 230H359.127L358.973 228.196C358.533 228.915 358.027 229.443 357.455 229.78C356.883 230.103 356.187 230.264 355.365 230.264C354.353 230.264 353.561 229.956 352.989 229.34C352.417 228.724 352.131 227.851 352.131 226.722V218.406H354.155V226.502C354.155 227.294 354.295 227.859 354.573 228.196C354.852 228.519 355.307 228.68 355.937 228.68C357.067 228.68 358.035 228.013 358.841 226.678V218.406H360.865V230ZM367.356 230.264C366.608 230.264 366.014 230.044 365.574 229.604C365.149 229.149 364.936 228.519 364.936 227.712V213.742L366.96 213.5V227.668C366.96 227.991 367.011 228.225 367.114 228.372C367.231 228.519 367.422 228.592 367.686 228.592C367.965 228.592 368.214 228.548 368.434 228.46L368.962 229.868C368.478 230.132 367.943 230.264 367.356 230.264ZM379.194 227.294C379.194 227.763 379.275 228.115 379.436 228.35C379.597 228.57 379.839 228.739 380.162 228.856L379.7 230.264C379.099 230.191 378.615 230.022 378.248 229.758C377.881 229.494 377.61 229.083 377.434 228.526C376.657 229.685 375.505 230.264 373.98 230.264C372.836 230.264 371.934 229.941 371.274 229.296C370.614 228.651 370.284 227.807 370.284 226.766C370.284 225.534 370.724 224.588 371.604 223.928C372.499 223.268 373.76 222.938 375.388 222.938H377.17V222.08C377.17 221.259 376.972 220.672 376.576 220.32C376.18 219.968 375.571 219.792 374.75 219.792C373.899 219.792 372.858 219.997 371.626 220.408L371.12 218.934C372.557 218.406 373.892 218.142 375.124 218.142C376.488 218.142 377.507 218.479 378.182 219.154C378.857 219.814 379.194 220.76 379.194 221.992V227.294ZM374.442 228.746C375.601 228.746 376.51 228.145 377.17 226.942V224.28H375.652C373.511 224.28 372.44 225.072 372.44 226.656C372.44 227.345 372.609 227.866 372.946 228.218C373.283 228.57 373.782 228.746 374.442 228.746ZM389.203 229.472C388.44 230 387.575 230.264 386.607 230.264C385.624 230.264 384.854 229.985 384.297 229.428C383.754 228.856 383.483 228.035 383.483 226.964V219.968H381.459V218.406H383.483V215.788L385.507 215.546V218.406H388.257L388.037 219.968H385.507V226.876C385.507 227.477 385.609 227.917 385.815 228.196C386.035 228.46 386.394 228.592 386.893 228.592C387.347 228.592 387.861 228.438 388.433 228.13L389.203 229.472ZM395.334 218.142C396.962 218.142 398.223 218.685 399.118 219.77C400.027 220.855 400.482 222.329 400.482 224.192C400.482 225.395 400.276 226.458 399.866 227.382C399.455 228.291 398.861 229.003 398.084 229.516C397.306 230.015 396.382 230.264 395.312 230.264C393.684 230.264 392.415 229.721 391.506 228.636C390.596 227.551 390.142 226.077 390.142 224.214C390.142 223.011 390.347 221.955 390.758 221.046C391.168 220.122 391.762 219.411 392.54 218.912C393.317 218.399 394.248 218.142 395.334 218.142ZM395.334 219.77C393.324 219.77 392.32 221.251 392.32 224.214C392.32 227.162 393.317 228.636 395.312 228.636C397.306 228.636 398.304 227.155 398.304 224.192C398.304 221.244 397.314 219.77 395.334 219.77ZM408.863 218.142C409.274 218.142 409.655 218.186 410.007 218.274L409.633 220.254C409.281 220.166 408.944 220.122 408.621 220.122C407.903 220.122 407.323 220.386 406.883 220.914C406.443 221.442 406.099 222.263 405.849 223.378V230H403.825V218.406H405.563L405.761 220.76C406.069 219.895 406.487 219.242 407.015 218.802C407.543 218.362 408.159 218.142 408.863 218.142ZM416.954 230.066C416.499 231.415 415.861 232.479 415.04 233.256C414.233 234.048 413.074 234.525 411.564 234.686L411.344 233.102C412.106 232.97 412.715 232.779 413.17 232.53C413.624 232.281 413.984 231.958 414.248 231.562C414.526 231.181 414.783 230.66 415.018 230H414.336L410.442 218.406H412.598L415.7 228.526L418.736 218.406H420.826L416.954 230.066ZM332.523 244.578C333.535 244.578 334.4 244.725 335.119 245.018C335.838 245.297 336.534 245.737 337.209 246.338L336.065 247.614C335.493 247.159 334.928 246.829 334.371 246.624C333.828 246.404 333.242 246.294 332.611 246.294C331.819 246.294 331.166 246.477 330.653 246.844C330.14 247.211 329.883 247.746 329.883 248.45C329.883 248.89 329.971 249.264 330.147 249.572C330.323 249.865 330.646 250.137 331.115 250.386C331.599 250.635 332.296 250.899 333.205 251.178C334.158 251.471 334.95 251.787 335.581 252.124C336.212 252.461 336.718 252.931 337.099 253.532C337.495 254.119 337.693 254.867 337.693 255.776C337.693 256.656 337.473 257.433 337.033 258.108C336.608 258.783 335.984 259.311 335.163 259.692C334.356 260.073 333.396 260.264 332.281 260.264C330.184 260.264 328.468 259.611 327.133 258.306L328.277 257.03C328.893 257.529 329.516 257.91 330.147 258.174C330.778 258.423 331.482 258.548 332.259 258.548C333.198 258.548 333.975 258.321 334.591 257.866C335.207 257.397 335.515 256.722 335.515 255.842C335.515 255.343 335.42 254.933 335.229 254.61C335.038 254.273 334.708 253.972 334.239 253.708C333.784 253.444 333.117 253.18 332.237 252.916C330.682 252.447 329.546 251.882 328.827 251.222C328.108 250.562 327.749 249.667 327.749 248.538C327.749 247.775 327.947 247.093 328.343 246.492C328.754 245.891 329.318 245.421 330.037 245.084C330.77 244.747 331.599 244.578 332.523 244.578ZM349.417 253.862C349.417 254.199 349.403 254.544 349.373 254.896H341.981C342.069 256.172 342.392 257.111 342.949 257.712C343.507 258.313 344.225 258.614 345.105 258.614C345.663 258.614 346.176 258.533 346.645 258.372C347.115 258.211 347.606 257.954 348.119 257.602L348.999 258.812C347.767 259.78 346.418 260.264 344.951 260.264C343.338 260.264 342.077 259.736 341.167 258.68C340.273 257.624 339.825 256.172 339.825 254.324C339.825 253.121 340.016 252.058 340.397 251.134C340.793 250.195 341.351 249.462 342.069 248.934C342.803 248.406 343.661 248.142 344.643 248.142C346.183 248.142 347.364 248.648 348.185 249.66C349.007 250.672 349.417 252.073 349.417 253.862ZM347.415 253.268C347.415 252.124 347.188 251.251 346.733 250.65C346.279 250.049 345.597 249.748 344.687 249.748C343.03 249.748 342.128 250.965 341.981 253.4H347.415V253.268ZM357.688 248.142C358.098 248.142 358.48 248.186 358.832 248.274L358.458 250.254C358.106 250.166 357.768 250.122 357.446 250.122C356.727 250.122 356.148 250.386 355.708 250.914C355.268 251.442 354.923 252.263 354.674 253.378V260H352.65V248.406H354.388L354.586 250.76C354.894 249.895 355.312 249.242 355.84 248.802C356.368 248.362 356.984 248.142 357.688 248.142ZM369.65 248.406L365.712 260H363.27L359.266 248.406H361.466L364.502 258.196L367.516 248.406H369.65ZM373.988 248.406V260H371.964V248.406H373.988ZM372.954 242.84C373.379 242.84 373.724 242.972 373.988 243.236C374.252 243.5 374.384 243.83 374.384 244.226C374.384 244.622 374.252 244.952 373.988 245.216C373.724 245.465 373.379 245.59 372.954 245.59C372.543 245.59 372.206 245.465 371.942 245.216C371.678 244.952 371.546 244.622 371.546 244.226C371.546 243.83 371.678 243.5 371.942 243.236C372.206 242.972 372.543 242.84 372.954 242.84ZM382.397 248.142C383.086 248.142 383.717 248.245 384.289 248.45C384.861 248.641 385.411 248.956 385.939 249.396L384.971 250.672C384.56 250.379 384.157 250.166 383.761 250.034C383.38 249.887 382.954 249.814 382.485 249.814C381.546 249.814 380.813 250.188 380.285 250.936C379.772 251.684 379.515 252.791 379.515 254.258C379.515 255.725 379.772 256.81 380.285 257.514C380.798 258.203 381.532 258.548 382.485 258.548C382.94 258.548 383.358 258.482 383.739 258.35C384.12 258.203 384.546 257.976 385.015 257.668L385.939 258.988C384.883 259.839 383.702 260.264 382.397 260.264C380.828 260.264 379.588 259.736 378.679 258.68C377.784 257.624 377.337 256.165 377.337 254.302C377.337 253.07 377.542 251.992 377.953 251.068C378.364 250.144 378.943 249.425 379.691 248.912C380.454 248.399 381.356 248.142 382.397 248.142ZM397.005 253.862C397.005 254.199 396.991 254.544 396.961 254.896H389.569C389.657 256.172 389.98 257.111 390.537 257.712C391.095 258.313 391.813 258.614 392.693 258.614C393.251 258.614 393.764 258.533 394.233 258.372C394.703 258.211 395.194 257.954 395.707 257.602L396.587 258.812C395.355 259.78 394.006 260.264 392.539 260.264C390.926 260.264 389.665 259.736 388.755 258.68C387.861 257.624 387.413 256.172 387.413 254.324C387.413 253.121 387.604 252.058 387.985 251.134C388.381 250.195 388.939 249.462 389.657 248.934C390.391 248.406 391.249 248.142 392.231 248.142C393.771 248.142 394.952 248.648 395.773 249.66C396.595 250.672 397.005 252.073 397.005 253.862ZM395.003 253.268C395.003 252.124 394.776 251.251 394.321 250.65C393.867 250.049 393.185 249.748 392.275 249.748C390.618 249.748 389.716 250.965 389.569 253.4H395.003V253.268ZM403.383 248.142C404.175 248.142 404.887 248.252 405.517 248.472C406.148 248.692 406.749 249.022 407.321 249.462L406.463 250.738C405.935 250.401 405.429 250.151 404.945 249.99C404.476 249.829 403.977 249.748 403.449 249.748C402.789 249.748 402.269 249.887 401.887 250.166C401.506 250.43 401.315 250.797 401.315 251.266C401.315 251.735 401.491 252.102 401.843 252.366C402.21 252.63 402.863 252.887 403.801 253.136C405.092 253.459 406.053 253.899 406.683 254.456C407.329 255.013 407.651 255.776 407.651 256.744C407.651 257.888 407.204 258.761 406.309 259.362C405.429 259.963 404.351 260.264 403.075 260.264C401.315 260.264 399.856 259.758 398.697 258.746L399.775 257.514C400.758 258.262 401.843 258.636 403.031 258.636C403.794 258.636 404.395 258.482 404.835 258.174C405.29 257.851 405.517 257.419 405.517 256.876C405.517 256.48 405.437 256.165 405.275 255.93C405.114 255.681 404.835 255.468 404.439 255.292C404.043 255.101 403.464 254.903 402.701 254.698C401.469 254.375 400.575 253.943 400.017 253.4C399.475 252.857 399.203 252.168 399.203 251.332C399.203 250.731 399.379 250.188 399.731 249.704C400.098 249.205 400.597 248.824 401.227 248.56C401.873 248.281 402.591 248.142 403.383 248.142Z" fill="white"/>
<path d="M585.333 302.5C585.333 308.391 590.109 313.167 596 313.167C601.891 313.167 606.667 308.391 606.667 302.5C606.667 296.609 601.891 291.833 596 291.833C590.109 291.833 585.333 296.609 585.333 302.5ZM543 304.5H596V300.5H543V304.5Z" fill="#A6D4C5"/>
<path d="M133.667 276C133.667 270.109 128.891 265.333 123 265.333C117.109 265.333 112.333 270.109 112.333 276C112.333 281.891 117.109 286.667 123 286.667C128.891 286.667 133.667 281.891 133.667 276ZM192 274H123V278H192V274Z" fill="#4498C4"/>
<path d="M189.667 62C189.667 56.109 184.891 51.3333 179 51.3333C173.109 51.3333 168.333 56.109 168.333 62C168.333 67.891 173.109 72.6667 179 72.6667C184.891 72.6667 189.667 67.891 189.667 62ZM255 60L179 60V64L255 64V60Z" fill="#57AFB8"/>
<path d="M550.333 62C550.333 67.891 555.109 72.6667 561 72.6667C566.891 72.6667 571.667 67.891 571.667 62C571.667 56.109 566.891 51.3333 561 51.3333C555.109 51.3333 550.333 56.109 550.333 62ZM471 64L561 64L561 60L471 60L471 64Z" fill="#72C1AD"/>
<path d="M282 441.333C276.109 441.333 271.333 446.109 271.333 452C271.333 457.891 276.109 462.667 282 462.667C287.891 462.667 292.667 457.891 292.667 452C292.667 446.109 287.891 441.333 282 441.333ZM280 387.5L280 452L284 452L284 387.5L280 387.5Z" fill="#51A3D2"/>
<defs>
<linearGradient id="paint0_linear_3060_8624" x1="192.997" y1="164.783" x2="358.811" y2="25.9718" gradientUnits="userSpaceOnUse">
<stop stop-color="#459DD0"/>
<stop offset="1" stop-color="#6DC497"/>
</linearGradient>
<linearGradient id="paint1_linear_3060_8624" x1="367.936" y1="37.5445" x2="551.549" y2="151.917" gradientUnits="userSpaceOnUse">
<stop stop-color="#6DC497"/>
<stop offset="1" stop-color="#75BDBE"/>
</linearGradient>
<linearGradient id="paint2_linear_3060_8624" x1="259.436" y1="370.627" x2="178.398" y2="170.278" gradientUnits="userSpaceOnUse">
<stop stop-color="#4191B6"/>
<stop offset="1" stop-color="#459DD0"/>
</linearGradient>
<linearGradient id="paint3_linear_3060_8624" x1="475.799" y1="371.015" x2="260.483" y2="386.014" gradientUnits="userSpaceOnUse">
<stop stop-color="#D1E0E7"/>
<stop offset="1" stop-color="#459DD0"/>
</linearGradient>
<linearGradient id="paint4_linear_3060_8624" x1="543.351" y1="164.867" x2="490.662" y2="375.115" gradientUnits="userSpaceOnUse">
<stop stop-color="#6DC497"/>
<stop offset="1" stop-color="#D1E0E7"/>
</linearGradient>
</defs>
</svg>
